<svg width="14" height="7" viewBox="0 0 14 7" fill="none" xmlns="http://www.w3.org/2000/svg">
<path d="M13.4746 6.12039C13.4757 6.29405 13.4218 6.46407 13.3199 6.60878C13.2179 6.75349 13.0726 6.86633 12.9023 6.93292C12.732 6.99951 12.5445 7.01683 12.3637 6.98268C12.1829 6.94852 12.017 6.86443 11.8872 6.74113L6.9765 2.10746L2.0658 6.74113C1.891 6.90576 1.65391 6.99825 1.40671 6.99825C1.2843 6.99825 1.1631 6.97554 1.05001 6.93143C0.936921 6.88731 0.834168 6.82265 0.747614 6.74113C0.661061 6.65961 0.592404 6.56284 0.545561 6.45633C0.498719 6.34983 0.474609 6.23568 0.474609 6.12039C0.474609 5.88757 0.572812 5.66429 0.747614 5.49966L6.31741 0.253989C6.49134 0.0911544 6.72662 -0.000244374 6.97186 -0.000244374C7.2171 -0.000244374 7.45238 0.0911544 7.62631 0.253989L13.1961 5.49966C13.2838 5.58063 13.3536 5.67719 13.4014 5.78374C13.4492 5.89029 13.4741 6.00472 13.4746 6.12039Z" fill="#FF4500"/>
</svg>
