<svg width="16" height="24" viewBox="0 0 16 24" fill="none" xmlns="http://www.w3.org/2000/svg">
<path d="M1.96248 24C1.58843 24.0019 1.22222 23.9025 0.910516 23.7143C0.598815 23.5262 0.355752 23.2578 0.212318 22.9434C0.0688831 22.629 0.0315748 22.2829 0.105149 21.9491C0.178724 21.6154 0.359848 21.3091 0.625429 21.0694L10.6062 12.0035L0.625429 2.93758C0.270822 2.61487 0.071606 2.17718 0.071606 1.7208C0.071606 1.49482 0.120514 1.27105 0.21554 1.06228C0.310565 0.853499 0.449846 0.6638 0.625429 0.504009C0.801013 0.344219 1.00946 0.217466 1.23887 0.130988C1.46828 0.0445102 1.71416 0 1.96248 0C2.46397 0 2.94492 0.181298 3.29952 0.504009L14.5985 10.7867C14.9493 11.1078 15.1461 11.5422 15.1461 11.9949C15.1461 12.4477 14.9493 12.882 14.5985 13.2031L3.29952 23.4858C3.12511 23.6478 2.91713 23.7766 2.68762 23.8648C2.45811 23.9531 2.21163 23.999 1.96248 24Z" fill="#FF4500"/>
</svg>
