<svg width="37" height="36" viewBox="0 0 37 36" fill="none" xmlns="http://www.w3.org/2000/svg">
<path d="M19.6271 19.0934H22.4187L22.857 16.265H19.6265V14.7191C19.6265 13.5442 20.0115 12.5023 21.1135 12.5023H22.8843V10.034C22.5731 9.99212 21.9151 9.90039 20.6717 9.90039C18.0754 9.90039 16.5533 11.2679 16.5533 14.3833V16.265H13.8843V19.0934H16.5533V26.8673C17.0819 26.9466 17.6172 27.0004 18.1668 27.0004C18.6636 27.0004 19.1485 26.9551 19.6271 26.8905V19.0934Z" fill="white"/>
<path d="M18.3843 35C8.99544 35 1.38428 27.3888 1.38428 18H-0.615723C-0.615723 28.4934 7.89087 37 18.3843 37V35ZM35.3843 18C35.3843 27.3888 27.7731 35 18.3843 35V37C28.8777 37 37.3843 28.4934 37.3843 18H35.3843ZM18.3843 1C27.7731 1 35.3843 8.61116 35.3843 18H37.3843C37.3843 7.50659 28.8777 -1 18.3843 -1V1ZM18.3843 -1C7.89087 -1 -0.615723 7.50659 -0.615723 18H1.38428C1.38428 8.61116 8.99544 1 18.3843 1V-1Z" fill="white"/>
</svg>
