<svg width="37" height="36" viewBox="0 0 37 36" fill="none" xmlns="http://www.w3.org/2000/svg">
<path d="M25.5845 18.6698V23.6339H22.6786V18.9725C22.6786 17.8222 22.2549 17.0352 21.2257 17.0352C20.4387 17.0352 19.9544 17.5801 19.7728 18.0644C19.7123 18.246 19.6517 18.4881 19.6517 18.7908V23.6339H16.7459C16.7459 23.6339 16.8064 15.7639 16.7459 14.9769H19.6517V16.1877C20.015 15.5823 20.7414 14.7348 22.2549 14.7348C24.1316 14.7348 25.5845 16.0061 25.5845 18.6698ZM13.719 10.7998C12.7504 10.7998 12.0845 11.4657 12.0845 12.3133C12.0845 13.1608 12.6899 13.8267 13.6585 13.8267C14.6876 13.8267 15.293 13.1608 15.293 12.3133C15.3535 11.4052 14.7481 10.7998 13.719 10.7998ZM12.2661 23.6339H15.1719V14.9769H12.2661V23.6339Z" fill="white"/>
<path d="M18.3843 35C8.99544 35 1.38428 27.3888 1.38428 18H-0.615723C-0.615723 28.4934 7.89087 37 18.3843 37V35ZM35.3843 18C35.3843 27.3888 27.7731 35 18.3843 35V37C28.8777 37 37.3843 28.4934 37.3843 18H35.3843ZM18.3843 1C27.7731 1 35.3843 8.61116 35.3843 18H37.3843C37.3843 7.50659 28.8777 -1 18.3843 -1V1ZM18.3843 -1C7.89087 -1 -0.615723 7.50659 -0.615723 18H1.38428C1.38428 8.61116 8.99544 1 18.3843 1V-1Z" fill="white"/>
</svg>
