<svg width="37" height="36" viewBox="0 0 37 36" fill="none" xmlns="http://www.w3.org/2000/svg">
<path d="M18.3843 10.6265C20.7698 10.6265 21.0951 10.6265 22.071 10.6265C22.9385 10.6265 23.3722 10.8434 23.6975 10.9518C24.1313 11.1687 24.4566 11.2771 24.7819 11.6024C25.1072 11.9277 25.324 12.253 25.4325 12.6867C25.5409 13.012 25.6493 13.4458 25.7578 14.3133C25.7578 15.2892 25.7578 15.506 25.7578 18C25.7578 20.494 25.7578 20.7108 25.7578 21.6867C25.7578 22.5542 25.5409 22.988 25.4325 23.3133C25.2156 23.747 25.1072 24.0723 24.7819 24.3976C24.4566 24.7229 24.1313 24.9398 23.6975 25.0482C23.3722 25.1566 22.9385 25.2651 22.071 25.3735C21.0951 25.3735 20.8783 25.3735 18.3843 25.3735C15.8903 25.3735 15.6734 25.3735 14.6975 25.3735C13.8301 25.3735 13.3963 25.1566 13.071 25.0482C12.6373 24.8313 12.312 24.7229 11.9867 24.3976C11.6614 24.0723 11.4445 23.747 11.3361 23.3133C11.2277 22.988 11.1192 22.5542 11.0108 21.6867C11.0108 20.7108 11.0108 20.494 11.0108 18C11.0108 15.506 11.0108 15.2892 11.0108 14.3133C11.0108 13.4458 11.2277 13.012 11.3361 12.6867C11.553 12.253 11.6614 11.9277 11.9867 11.6024C12.312 11.2771 12.6373 11.0602 13.071 10.9518C13.3963 10.8434 13.8301 10.7349 14.6975 10.6265C15.6734 10.6265 15.9987 10.6265 18.3843 10.6265ZM18.3843 9C15.8903 9 15.6734 9 14.6975 9C13.7216 9 13.071 9.21687 12.5289 9.43374C11.9867 9.6506 11.4445 9.9759 10.9024 10.5181C10.3602 11.0602 10.1433 11.494 9.81801 12.1446C9.60115 12.6867 9.49271 13.3374 9.38428 14.3133C9.38428 15.2892 9.38428 15.6145 9.38428 18C9.38428 20.494 9.38428 20.7108 9.38428 21.6867C9.38428 22.6627 9.60115 23.3133 9.81801 23.8554C10.0349 24.3976 10.3602 24.9398 10.9024 25.4819C11.4445 26.0241 11.8783 26.241 12.5289 26.5663C13.071 26.7831 13.7216 26.8916 14.6975 27C15.6734 27 15.9987 27 18.3843 27C20.7698 27 21.0951 27 22.071 27C23.0469 27 23.6975 26.7831 24.2397 26.5663C24.7819 26.3494 25.324 26.0241 25.8662 25.4819C26.4084 24.9398 26.6252 24.506 26.9505 23.8554C27.1674 23.3133 27.2758 22.6627 27.3843 21.6867C27.3843 20.7108 27.3843 20.3855 27.3843 18C27.3843 15.6145 27.3843 15.2892 27.3843 14.3133C27.3843 13.3374 27.1674 12.6867 26.9505 12.1446C26.7337 11.6024 26.4084 11.0602 25.8662 10.5181C25.324 9.9759 24.8903 9.75904 24.2397 9.43374C23.6975 9.21687 23.0469 9.10843 22.071 9C21.0951 9 20.8783 9 18.3843 9Z" fill="white"/>
<path d="M18.3843 13.3373C15.7819 13.3373 13.7216 15.3976 13.7216 18C13.7216 20.6024 15.7819 22.6627 18.3843 22.6627C20.9867 22.6627 23.0469 20.6024 23.0469 18C23.0469 15.3976 20.9867 13.3373 18.3843 13.3373ZM18.3843 21.0361C16.7578 21.0361 15.3481 19.7349 15.3481 18C15.3481 16.3735 16.6493 14.9639 18.3843 14.9639C20.0108 14.9639 21.4204 16.2651 21.4204 18C21.4204 19.6265 20.0108 21.0361 18.3843 21.0361Z" fill="white"/>
<path d="M23.1554 14.3133C23.7542 14.3133 24.2397 13.8278 24.2397 13.2289C24.2397 12.6301 23.7542 12.1446 23.1554 12.1446C22.5565 12.1446 22.071 12.6301 22.071 13.2289C22.071 13.8278 22.5565 14.3133 23.1554 14.3133Z" fill="white"/>
<path d="M18.3843 35C8.99544 35 1.38428 27.3888 1.38428 18H-0.615723C-0.615723 28.4934 7.89087 37 18.3843 37V35ZM35.3843 18C35.3843 27.3888 27.7731 35 18.3843 35V37C28.8777 37 37.3843 28.4934 37.3843 18H35.3843ZM18.3843 1C27.7731 1 35.3843 8.61116 35.3843 18H37.3843C37.3843 7.50659 28.8777 -1 18.3843 -1V1ZM18.3843 -1C7.89087 -1 -0.615723 7.50659 -0.615723 18H1.38428C1.38428 8.61116 8.99544 1 18.3843 1V-1Z" fill="white"/>
</svg>
