<svg version="1.1" xmlns:xlink="http://www.w3.org/1999/xlink"
width="17" height="219" viewBox="0 0 17 219" fill="none" xmlns="http://www.w3.org/2000/svg"  id="line">
<path d="M8.5 16L8 218" stroke="#FF4500" stroke-linecap="round"/>
<path d="M8.5 16C12.6421 16 16 12.6421 16 8.5C16 4.35786 12.6421 1 8.5 1C4.35786 1 1 4.35786 1 8.5C1 12.6421 4.35786 16 8.5 16Z" stroke="#FF4500"/>
<path d="M12 8.40285V8.60269C12 10.479 10.479 12 8.60269 12C6.79963 12 5.31063 10.5914 5.21062 8.79114L5.19953 8.59161C5.09117 6.64109 6.64362 5 8.59715 5C10.4765 5 12 6.52351 12 8.40285Z" stroke="#FF4500"/>
</svg>