<svg width="25" height="27" viewBox="0 0 25 27" fill="none" xmlns="http://www.w3.org/2000/svg">
<path d="M12.3843 26.7397C6.42088 26.7397 0.384277 25.4872 0.384277 23.0934C0.384277 21.3517 3.34888 20.4434 5.83588 19.9886C6.16348 19.9257 6.47428 20.1481 6.53278 20.4784C6.59158 20.8087 6.37528 21.1247 6.04918 21.1842C2.79658 21.7798 1.58428 22.671 1.58428 23.0934C1.58428 23.9184 5.39638 25.5243 12.3843 25.5243C19.3722 25.5243 23.1843 23.9184 23.1843 23.0934C23.1843 22.671 21.972 21.7798 18.7194 21.1845C18.3933 21.125 18.1767 20.809 18.2358 20.4787C18.2943 20.1484 18.6069 19.9272 18.9327 19.9889C21.4197 20.4434 24.3843 21.3517 24.3843 23.0934C24.3843 25.4872 18.3477 26.7397 12.3843 26.7397ZM21.9843 9.72354C21.9843 17.2547 13.0956 23.3435 12.717 23.599C12.6162 23.6671 12.5004 23.7011 12.3843 23.7011C12.2682 23.7011 12.1524 23.6671 12.0516 23.599C11.673 23.3435 2.78428 17.2547 2.78428 9.72354C2.78428 4.36192 7.09078 0 12.3843 0C17.6778 0 21.9843 4.36192 21.9843 9.72354ZM16.5843 9.72354C16.5843 7.37409 14.7039 5.46949 12.3843 5.46949C10.0647 5.46949 8.18428 7.37409 8.18428 9.72354C8.18428 12.073 10.0647 13.9776 12.3843 13.9776C14.7039 13.9776 16.5843 12.073 16.5843 9.72354Z" fill="#FF4500"/>
</svg>
