<svg width="180" height="60" viewBox="0 0 180 60" fill="none" xmlns="http://www.w3.org/2000/svg">
<path d="M8.36577 30.3343L0.830673 23.6907C0.507784 23.406 0 23.6352 0 24.0657V37.3531C0 37.7835 0.507784 38.0128 0.830673 37.7281L8.36577 31.0844C8.59154 30.8854 8.59154 30.5334 8.36577 30.3343Z" fill="#FF4500"/>
<path d="M27.4127 29.9965L15.7948 18.4848C15.4792 18.172 14.9429 18.3956 14.9429 18.8399V42.5737C14.9429 43.018 15.4792 43.2416 15.7948 42.9289L27.4127 31.4172C27.8075 31.0259 27.8075 30.3877 27.4127 29.9965Z" fill="black"/>
<path fill-rule="evenodd" clip-rule="evenodd" d="M57.738 0.499999C57.738 0.223857 57.5142 0 57.238 0H45.6075C45.3313 0 45.1075 0.223858 45.1075 0.5V15.0861C40.6871 12.7896 36.439 11.4995 34.8947 11.0699C34.5821 10.9829 34.2827 11.22 34.2827 11.5445V50.2689C34.2827 50.5934 34.5821 50.8305 34.8947 50.7436C36.439 50.314 40.6871 49.0239 45.1075 46.7273V59.5C45.1075 59.7761 45.3313 60 45.6075 60H57.238C57.5142 60 57.738 59.7761 57.738 59.5V31.1006C57.739 31.0361 57.7395 30.9715 57.7395 30.9067C57.7395 30.8419 57.739 30.7773 57.738 30.7129V0.499999ZM57.738 30.7129C57.6273 23.3347 51.2036 18.2533 45.1075 15.0861L45.1075 46.7273C51.2036 43.5601 57.6273 38.4787 57.738 31.1006V30.7129Z" fill="url(#paint0_linear_133_1838)"/>
<path fill-rule="evenodd" clip-rule="evenodd" d="M57.738 0.499999C57.738 0.223857 57.5142 0 57.238 0H45.6075C45.3313 0 45.1075 0.223858 45.1075 0.5V15.0861C40.6871 12.7896 36.439 11.4995 34.8947 11.0699C34.5821 10.9829 34.2827 11.22 34.2827 11.5445V50.2689C34.2827 50.5934 34.5821 50.8305 34.8947 50.7436C36.439 50.314 40.6871 49.0239 45.1075 46.7273V59.5C45.1075 59.7761 45.3313 60 45.6075 60H57.238C57.5142 60 57.738 59.7761 57.738 59.5V31.1006C57.739 31.0361 57.7395 30.9715 57.7395 30.9067C57.7395 30.8419 57.739 30.7773 57.738 30.7129V0.499999ZM57.738 30.7129C57.6273 23.3347 51.2036 18.2533 45.1075 15.0861L45.1075 46.7273C51.2036 43.5601 57.6273 38.4787 57.738 31.1006V30.7129Z" fill="black"/>
<path d="M83.7022 59.4949C81.3271 59.4949 79.3252 58.982 77.6965 57.9563C76.0678 56.9078 74.9029 55.449 74.2017 53.5799L78.8841 50.8447C79.8341 53.0557 81.4967 54.1612 83.8719 54.1612C86.0208 54.1612 87.0953 53.5116 87.0953 52.2123C87.0953 51.4829 86.7447 50.9359 86.0435 50.5712C85.3196 50.1381 84.0302 49.6708 82.1754 49.1694C80.2752 48.6451 78.6692 47.8929 77.3572 46.9128C75.9095 45.7275 75.1856 44.0522 75.1856 41.8868C75.1856 39.6758 75.9661 37.9093 77.5269 36.5873C79.1103 35.2653 80.9878 34.6042 83.1593 34.6042C85.1047 34.6042 86.8239 35.0715 88.3168 36.0061C89.8098 36.9178 90.986 38.2512 91.8456 40.0063L87.265 42.7074C86.4054 40.8611 85.0368 39.938 83.1593 39.938C82.3676 39.938 81.7456 40.1089 81.2932 40.4508C80.8408 40.7927 80.6145 41.2258 80.6145 41.75C80.6145 42.3199 80.886 42.8327 81.4289 43.2886C82.017 43.7445 83.1707 44.2232 84.8898 44.7246L87.0953 45.4426C87.6608 45.625 88.3168 45.9327 89.0633 46.3658C89.8776 46.776 90.4884 47.2205 90.8955 47.6992C91.9813 48.8844 92.5242 50.366 92.5242 52.1439C92.5242 54.4005 91.7099 56.2012 90.0812 57.546C88.4525 58.8453 86.3262 59.4949 83.7022 59.4949Z" fill="#EDEDED"/>
<path d="M83.7022 59.4949C81.3271 59.4949 79.3252 58.982 77.6965 57.9563C76.0678 56.9078 74.9029 55.449 74.2017 53.5799L78.8841 50.8447C79.8341 53.0557 81.4967 54.1612 83.8719 54.1612C86.0208 54.1612 87.0953 53.5116 87.0953 52.2123C87.0953 51.4829 86.7447 50.9359 86.0435 50.5712C85.3196 50.1381 84.0302 49.6708 82.1754 49.1694C80.2752 48.6451 78.6692 47.8929 77.3572 46.9128C75.9095 45.7275 75.1856 44.0522 75.1856 41.8868C75.1856 39.6758 75.9661 37.9093 77.5269 36.5873C79.1103 35.2653 80.9878 34.6042 83.1593 34.6042C85.1047 34.6042 86.8239 35.0715 88.3168 36.0061C89.8098 36.9178 90.986 38.2512 91.8456 40.0063L87.265 42.7074C86.4054 40.8611 85.0368 39.938 83.1593 39.938C82.3676 39.938 81.7456 40.1089 81.2932 40.4508C80.8408 40.7927 80.6145 41.2258 80.6145 41.75C80.6145 42.3199 80.886 42.8327 81.4289 43.2886C82.017 43.7445 83.1707 44.2232 84.8898 44.7246L87.0953 45.4426C87.6608 45.625 88.3168 45.9327 89.0633 46.3658C89.8776 46.776 90.4884 47.2205 90.8955 47.6992C91.9813 48.8844 92.5242 50.366 92.5242 52.1439C92.5242 54.4005 91.7099 56.2012 90.0812 57.546C88.4525 58.8453 86.3262 59.4949 83.7022 59.4949Z" fill="black"/>
<path d="M105.251 49.5113V53.7509H114.751V59.0162H99.8219V35.0829H114.582V40.3482H105.251V44.3143H113.733V49.5113H105.251Z" fill="#EDEDED"/>
<path d="M105.251 49.5113V53.7509H114.751V59.0162H99.8219V35.0829H114.582V40.3482H105.251V44.3143H113.733V49.5113H105.251Z" fill="black"/>
<path d="M142.486 55.9049C140.088 58.2982 137.17 59.4949 133.732 59.4949C130.294 59.4949 127.376 58.2982 124.978 55.9049C122.58 53.5116 121.381 50.5598 121.381 47.0496C121.381 43.5393 122.58 40.5876 124.978 38.1942C127.376 35.8009 130.294 34.6042 133.732 34.6042C137.17 34.6042 140.088 35.8009 142.486 38.1942C144.884 40.5876 146.083 43.5393 146.083 47.0496C146.083 50.5598 144.884 53.5116 142.486 55.9049ZM126.81 47.0496C126.81 49.1466 127.466 50.8561 128.778 52.1781C130.09 53.5002 131.741 54.1612 133.732 54.1612C135.7 54.1612 137.34 53.5002 138.652 52.1781C139.986 50.8333 140.654 49.1238 140.654 47.0496C140.654 44.9753 139.986 43.2658 138.652 41.921C137.34 40.599 135.7 39.938 133.732 39.938C131.741 39.938 130.09 40.599 128.778 41.921C127.466 43.243 126.81 44.9526 126.81 47.0496Z" fill="#EDEDED"/>
<path d="M142.486 55.9049C140.088 58.2982 137.17 59.4949 133.732 59.4949C130.294 59.4949 127.376 58.2982 124.978 55.9049C122.58 53.5116 121.381 50.5598 121.381 47.0496C121.381 43.5393 122.58 40.5876 124.978 38.1942C127.376 35.8009 130.294 34.6042 133.732 34.6042C137.17 34.6042 140.088 35.8009 142.486 38.1942C144.884 40.5876 146.083 43.5393 146.083 47.0496C146.083 50.5598 144.884 53.5116 142.486 55.9049ZM126.81 47.0496C126.81 49.1466 127.466 50.8561 128.778 52.1781C130.09 53.5002 131.741 54.1612 133.732 54.1612C135.7 54.1612 137.34 53.5002 138.652 52.1781C139.986 50.8333 140.654 49.1238 140.654 47.0496C140.654 44.9753 139.986 43.2658 138.652 41.921C137.34 40.599 135.7 39.938 133.732 39.938C131.741 39.938 130.09 40.599 128.778 41.921C127.466 43.243 126.81 44.9526 126.81 47.0496Z" fill="black"/>
<path d="M78.1525 6.32307V8.97876C79.0519 7.01861 80.6834 6.03853 83.047 6.03853V8.91553C81.7083 8.8523 80.5579 9.2106 79.5957 9.99045C78.6336 10.7703 78.1525 12.0244 78.1525 13.7527V22.1307H75.4229V6.32307H78.1525Z" fill="black"/>
<path d="M101.551 20.139C99.9618 21.7408 98.0061 22.5417 95.6843 22.5417C93.3626 22.5417 91.4068 21.7408 89.8172 20.139C88.2275 18.5371 87.4327 16.5664 87.4327 14.2269C87.4327 11.8874 88.2275 9.91668 89.8172 8.31484C91.4068 6.71299 93.3626 5.91207 95.6843 5.91207C98.0061 5.91207 99.9618 6.71299 101.551 8.31484C103.162 9.93776 103.967 11.9084 103.967 14.2269C103.967 16.5454 103.162 18.5161 101.551 20.139ZM95.6843 19.8544C97.2531 19.8544 98.5708 19.317 99.6376 18.2421C100.704 17.1671 101.238 15.8287 101.238 14.2269C101.238 12.6251 100.704 11.2867 99.6376 10.2118C98.5708 9.13683 97.2531 8.59937 95.6843 8.59937C94.1365 8.59937 92.8292 9.13683 91.7624 10.2118C90.6957 11.2867 90.1623 12.6251 90.1623 14.2269C90.1623 15.8287 90.6957 17.1671 91.7624 18.2421C92.8292 19.317 94.1365 19.8544 95.6843 19.8544Z" fill="black"/>
<path d="M118.01 22.5417C115.646 22.5417 113.68 21.7514 112.111 20.1706C110.542 18.5687 109.758 16.5875 109.758 14.2269C109.758 11.8663 110.542 9.8956 112.111 8.31484C113.68 6.71299 115.646 5.91207 118.01 5.91207C119.558 5.91207 120.949 6.29145 122.183 7.05022C123.417 7.78791 124.337 8.78907 124.944 10.0537L122.653 11.3815C122.256 10.5384 121.639 9.86399 120.802 9.35814C119.986 8.8523 119.056 8.59937 118.01 8.59937C116.441 8.59937 115.123 9.13683 114.056 10.2118C113.011 11.3078 112.488 12.6461 112.488 14.2269C112.488 15.7866 113.011 17.1144 114.056 18.2104C115.123 19.2854 116.441 19.8228 118.01 19.8228C119.056 19.8228 119.997 19.5804 120.833 19.0957C121.67 18.5898 122.308 17.9154 122.747 17.0723L125.069 18.4317C124.379 19.6964 123.406 20.6975 122.151 21.4352C120.896 22.1729 119.516 22.5417 118.01 22.5417Z" fill="black"/>
<path d="M136.737 13.974L144.487 22.1307H141.099L133.945 14.6379V22.1307H131.215V0H133.945V13.3101L140.722 6.32307H144.236L136.737 13.974Z" fill="black"/>
<path d="M164.097 15.4915H150.951C151.223 16.8826 151.861 17.9786 152.865 18.7795C153.869 19.5594 155.124 19.9493 156.63 19.9493C158.7 19.9493 160.206 19.18 161.148 17.6414L163.469 18.9692C161.921 21.3509 159.621 22.5417 156.567 22.5417C154.099 22.5417 152.07 21.7619 150.48 20.2022C148.932 18.6004 148.158 16.6086 148.158 14.2269C148.158 11.8241 148.922 9.84291 150.449 8.28322C151.976 6.70245 153.952 5.91207 156.379 5.91207C158.679 5.91207 160.551 6.73407 161.995 8.37807C163.459 9.97991 164.191 11.9401 164.191 14.2585C164.191 14.659 164.16 15.07 164.097 15.4915ZM156.379 8.50453C154.935 8.50453 153.722 8.91553 152.739 9.73753C151.777 10.5595 151.181 11.6766 150.951 13.0888H161.43C161.2 11.6344 160.625 10.5068 159.704 9.70591C158.784 8.90499 157.675 8.50453 156.379 8.50453Z" fill="black"/>
<path d="M178.854 6.32307V8.97876H174.682V17.5465C174.682 18.3264 174.828 18.8849 175.121 19.2221C175.435 19.5383 175.905 19.7069 176.533 19.728C177.16 19.728 177.934 19.7069 178.854 19.6647V22.1307C176.449 22.4469 174.692 22.2467 173.583 21.53C172.496 20.8134 171.952 19.4856 171.952 17.5465V8.97876H168.846V6.32307H171.952V2.71892L174.682 1.89692V6.32307H178.854Z" fill="black"/>
<defs>
<linearGradient id="paint0_linear_133_1838" x1="34.2827" y1="30.9091" x2="54.1308" y2="30.9091" gradientUnits="userSpaceOnUse">
<stop/>
<stop offset="1" stop-opacity="0"/>
</linearGradient>
</defs>
</svg>
