<svg width="25" height="18" viewBox="0 0 25 18" fill="none" xmlns="http://www.w3.org/2000/svg">
<path d="M24.1731 1.4541L16.894 8.73936L24.1731 16.0246C24.3047 15.7476 24.3845 15.4413 24.3845 15.1142V2.36448C24.3845 2.03738 24.3047 1.73115 24.1731 1.4541Z" fill="#FF4500"/>
<path d="M22.2772 0.239258H2.49505C2.17033 0.239258 1.86634 0.319676 1.59131 0.452226L10.8947 9.77669C11.7173 10.6053 13.055 10.6053 13.8776 9.77669L23.1809 0.452226C22.9059 0.319676 22.6019 0.239258 22.2772 0.239258Z" fill="#FF4500"/>
<path d="M0.595693 1.4541C0.464109 1.73115 0.384277 2.03738 0.384277 2.36448V15.1142C0.384277 15.4413 0.464109 15.7476 0.595693 16.0246L7.87473 8.73936L0.595693 1.4541Z" fill="#FF4500"/>
<path d="M15.9019 9.74121L14.8719 10.7788C13.5012 12.1595 11.271 12.1595 9.90033 10.7788L8.87034 9.74121L1.59131 17.0265C1.86634 17.159 2.17033 17.2394 2.49505 17.2394H22.2772C22.6019 17.2394 22.9059 17.159 23.1809 17.0265L15.9019 9.74121Z" fill="#FF4500"/>
</svg>
