<svg width="25" height="25" viewBox="0 0 25 25" fill="none" xmlns="http://www.w3.org/2000/svg">
<path d="M13.8374 0.739258C13.4488 0.739258 13.1343 1.05373 13.1343 1.44236C13.1343 1.83099 13.4488 2.14547 13.8374 2.14547C18.8773 2.14547 22.9779 6.24597 22.9779 11.2858C22.9779 11.6744 23.2924 11.9889 23.681 11.9889C24.0697 11.9889 24.3841 11.6744 24.3841 11.2858C24.3841 5.47012 19.6532 0.739258 13.8374 0.739258ZM13.8374 3.55167C13.4488 3.55167 13.1343 3.86615 13.1343 4.25478C13.1343 4.64341 13.4488 4.95788 13.8374 4.95788C17.3269 4.95788 20.1654 7.7964 20.1654 11.2858C20.1654 11.6744 20.4799 11.9889 20.8686 11.9889C21.2572 11.9889 21.5717 11.6744 21.5717 11.2858C21.5716 7.02121 18.1021 3.55167 13.8374 3.55167ZM13.8374 6.36409C13.4488 6.36409 13.1343 6.67856 13.1343 7.06719C13.1343 7.45582 13.4488 7.7703 13.8374 7.7703C15.7758 7.7703 17.353 9.34745 17.353 11.2858C17.353 11.6744 17.6675 11.9889 18.0561 11.9889C18.4447 11.9889 18.7592 11.6744 18.7592 11.2858C18.7592 8.57226 16.551 6.36409 13.8374 6.36409ZM13.8374 9.1765C13.4488 9.1765 13.1343 9.49098 13.1343 9.87961C13.1343 10.2682 13.4488 10.5827 13.8374 10.5827C14.2253 10.5827 14.5405 10.8979 14.5405 11.2858C14.5405 11.6744 14.855 11.9889 15.2436 11.9889C15.6323 11.9889 15.9467 11.6744 15.9467 11.2858C15.9467 10.1227 15.0005 9.1765 13.8374 9.1765Z" fill="url(#paint0_linear_133_2402)"/>
<path d="M20.4213 20.5147C20.3588 19.883 20.0203 19.3193 19.4923 18.967L15.9122 16.5796C15.08 16.0269 13.9601 16.1353 13.2515 16.844L12.3094 17.7853C11.7566 17.7057 10.4424 17.3768 9.09455 16.0289C7.74668 14.6811 7.41781 13.3669 7.33812 12.8142L8.2795 11.8721C8.98744 11.1642 9.09868 10.045 8.54317 9.21075L6.15642 5.63139C5.80416 5.10336 5.24045 4.76489 4.60872 4.70241C3.97699 4.64128 3.35834 4.86168 2.90999 5.31007L1.41793 6.8014C0.707316 7.5121 0.332415 8.48299 0.39007 9.46556C0.502662 11.3785 1.33145 15.227 5.61399 19.5095C9.89723 23.792 13.7451 24.6207 15.6581 24.7333C16.6202 24.7935 17.6025 24.4259 18.3215 23.7054L19.8136 22.2134C20.262 21.765 20.4838 21.1457 20.4213 20.5147Z" fill="url(#paint1_linear_133_2402)"/>
<defs>
<linearGradient id="paint0_linear_133_2402" x1="18.7592" y1="11.9889" x2="18.7592" y2="0.739258" gradientUnits="userSpaceOnUse">
<stop stop-color="#FF4500"/>
<stop offset="1" stop-color="#FF4500" stop-opacity="0"/>
</linearGradient>
<linearGradient id="paint1_linear_133_2402" x1="10.408" y1="24.7397" x2="10.408" y2="4.69242" gradientUnits="userSpaceOnUse">
<stop stop-color="#FF4500"/>
<stop offset="1" stop-color="#FF4500"/>
</linearGradient>
</defs>
</svg>
