<svg width="70" height="70" viewBox="0 0 70 70" fill="none" xmlns="http://www.w3.org/2000/svg">
<path d="M49.6735 32.4556C49.1206 31.8648 48.3429 31.6047 47.2499 31.7053C46.6022 31.7654 46.1722 31.9658 45.8594 32.1119C45.4438 32.3051 45.2699 32.3574 44.8226 32.0624V24.4562C44.8226 23.9039 44.3749 23.4562 43.8226 23.4562H37.1203L36.9854 23.6396C36.2654 24.6175 36.4103 25.1271 36.7151 25.7927C36.8516 26.0913 36.9934 26.401 37.0384 26.8992C37.0544 27.0822 37.058 27.2539 37.0496 27.4142C37.0468 27.458 37.0371 27.4949 37.0323 27.5367C37.0203 27.6495 37.0094 27.7615 36.9849 27.8613C36.9725 27.9092 36.9512 27.9494 36.9364 27.9948C36.9087 28.0792 36.883 28.1644 36.8452 28.2383C36.8207 28.2862 36.7858 28.3243 36.7577 28.3682C36.7167 28.4294 36.679 28.4943 36.63 28.5475C36.6067 28.5723 36.581 28.5926 36.5561 28.6149C36.5163 28.6518 36.477 28.6887 36.4348 28.7196C36.4047 28.7415 36.3742 28.7589 36.3445 28.7784C36.3035 28.8044 36.2622 28.8299 36.2196 28.851C36.1891 28.8669 36.159 28.8803 36.1285 28.8928C36.0839 28.9123 36.0401 28.931 35.9952 28.946C35.9682 28.9557 35.9418 28.9634 35.9152 28.972C35.8651 28.9866 35.8165 29 35.7683 29.0109C35.7502 29.0146 35.7329 29.0186 35.7157 29.0223C35.6559 29.0349 35.6004 29.0434 35.5482 29.0507C35.5446 29.0511 35.5406 29.0519 35.537 29.0519C35.4844 29.0584 35.4386 29.062 35.3969 29.0645C35.3667 29.0669 35.3386 29.0681 35.3145 29.0693H35.3049C35.2503 29.071 35.2138 29.0706 35.2029 29.071C35.2029 29.071 35.1885 29.0714 35.1676 29.0714C35.1636 29.0714 35.1551 29.071 35.1507 29.071C35.131 29.071 35.1057 29.0698 35.072 29.0681C35.06 29.0677 35.0475 29.0665 35.0343 29.0653C35.0026 29.0629 34.9688 29.06 34.9295 29.0551C34.911 29.0527 34.8917 29.0499 34.8713 29.0466C34.8323 29.0413 34.7926 29.034 34.7496 29.0255C34.7255 29.0207 34.7022 29.0154 34.6769 29.0097C34.6343 28.9996 34.5906 28.9878 34.5456 28.974C34.5175 28.9655 34.4906 28.9569 34.4621 28.9472C34.4175 28.9314 34.3733 28.9127 34.3276 28.8932C34.2987 28.8807 34.2702 28.8677 34.2412 28.8539C34.1963 28.8316 34.1529 28.8044 34.1087 28.7764C34.0806 28.7593 34.0529 28.7431 34.0252 28.7232C33.9802 28.6904 33.9377 28.6518 33.8955 28.6124C33.8738 28.5917 33.8505 28.5743 33.8297 28.5512C33.7775 28.4956 33.7381 28.4282 33.6947 28.3633C33.667 28.3215 33.6341 28.285 33.61 28.2395C33.5735 28.1685 33.549 28.0861 33.5217 28.0058C33.5056 27.9567 33.4827 27.9137 33.4695 27.8617C33.4466 27.7696 33.4366 27.6649 33.4249 27.5623C33.4189 27.5116 33.4076 27.4673 33.404 27.4138C33.3952 27.2531 33.3988 27.0818 33.4153 26.8988C33.4602 26.3993 33.6016 26.0905 33.7385 25.7919C34.0433 25.126 34.1886 24.6175 33.4675 23.6385L33.3322 23.4555L24.1604 23.4551C23.6081 23.4551 23.1604 23.9028 23.1604 24.4551V32.5263L23.3419 32.6626C23.462 32.7531 23.5764 32.8306 23.6856 32.8963C23.7049 32.9085 23.7218 32.9138 23.7406 32.9255C23.8302 32.9763 23.9189 33.0241 24.0032 33.0603C24.0145 33.0655 24.0249 33.0668 24.0362 33.0716C24.1257 33.1081 24.2144 33.1366 24.3 33.156C24.3124 33.1589 24.3233 33.1589 24.3353 33.1613C24.4164 33.1763 24.4959 33.1857 24.575 33.1869C24.5823 33.1869 24.5895 33.1893 24.5967 33.1893C24.622 33.1893 24.6445 33.184 24.6694 33.1828C24.7132 33.1804 24.7569 33.1775 24.7991 33.1706C24.8573 33.1609 24.9147 33.1487 24.9717 33.1325C24.9842 33.1288 24.9974 33.1264 25.0095 33.1228C25.1613 33.0773 25.313 33.012 25.4737 32.9361C25.7692 32.7981 26.0752 32.6557 26.5675 32.6103C26.7534 32.5932 26.9245 32.5908 27.0843 32.5993C27.1963 32.6058 27.2955 32.6265 27.3963 32.646C27.4416 32.6545 27.4934 32.6573 27.5372 32.6683C27.6171 32.6894 27.6854 32.7227 27.7572 32.7531C27.8119 32.7754 27.8705 32.7937 27.9203 32.8209C27.9749 32.8517 28.0198 32.8923 28.0688 32.9292C28.1251 32.971 28.1833 33.0091 28.2319 33.0591C28.2668 33.0948 28.2961 33.1325 28.3258 33.1706C28.3499 33.2015 28.376 33.2311 28.3977 33.2628C28.4258 33.3054 28.4487 33.3496 28.4728 33.3938C28.4896 33.4255 28.5089 33.4555 28.5226 33.4863C28.5447 33.5334 28.5611 33.5797 28.5784 33.6267C28.5892 33.656 28.6013 33.6848 28.6109 33.714C28.6258 33.7635 28.6378 33.811 28.6487 33.8588C28.6547 33.8832 28.6619 33.9083 28.6667 33.9323C28.6776 33.983 28.684 34.0297 28.6908 34.0763C28.6932 34.0934 28.6972 34.1129 28.6992 34.1283C28.7057 34.1798 28.7093 34.2245 28.7117 34.2671C28.7121 34.2744 28.7133 34.2841 28.7141 34.2914C28.7165 34.3356 28.7169 34.3726 28.7177 34.401V34.4083V34.418C28.7177 34.4379 28.7173 34.4561 28.7173 34.4618V34.4643C28.7173 34.4643 28.7177 34.4793 28.7177 34.5032C28.7177 34.5085 28.7173 34.519 28.7165 34.5251C28.7165 34.5474 28.7161 34.571 28.7141 34.6051C28.7129 34.6213 28.7105 34.6432 28.7089 34.6627C28.7061 34.6935 28.7041 34.7227 28.6992 34.7585C28.6964 34.7828 28.6904 34.8112 28.6868 34.838C28.6816 34.8749 28.676 34.909 28.6683 34.9488C28.6619 34.9808 28.6515 35.0149 28.643 35.0486C28.6334 35.0867 28.625 35.1233 28.6125 35.1626C28.6005 35.2004 28.5848 35.2373 28.5712 35.2754C28.5567 35.3136 28.5435 35.3505 28.5266 35.3886C28.5085 35.4276 28.4852 35.4657 28.4643 35.5043C28.4447 35.54 28.4266 35.5757 28.4025 35.611C28.3768 35.6499 28.3451 35.6857 28.315 35.723C28.2897 35.7546 28.266 35.7859 28.2363 35.8155C28.1861 35.8674 28.1243 35.9076 28.066 35.9514C28.0186 35.988 27.9749 36.0273 27.9223 36.0573C27.8757 36.0833 27.8199 36.0991 27.7693 36.1211C27.6938 36.1531 27.6211 36.1884 27.536 36.2107C27.5043 36.2193 27.4665 36.2205 27.4328 36.227C27.179 36.2801 26.8943 36.2984 26.5675 36.2688C26.0744 36.2237 25.7688 36.0805 25.4733 35.9429C25.3094 35.8666 25.1556 35.8005 25.0006 35.7546C24.9982 35.7542 24.9958 35.7534 24.993 35.753C24.926 35.7335 24.8577 35.7189 24.789 35.7088C24.7585 35.7039 24.7268 35.7023 24.6951 35.6999C24.6613 35.6974 24.6308 35.6909 24.5963 35.6909C24.5862 35.6909 24.5766 35.6938 24.567 35.6938C24.4979 35.6954 24.4284 35.7039 24.3582 35.7161C24.3365 35.7197 24.316 35.721 24.2939 35.7258C24.2188 35.7421 24.1417 35.7697 24.0638 35.7993C24.0418 35.8078 24.0217 35.8119 23.9992 35.8212C23.9313 35.8504 23.8603 35.8902 23.7888 35.9295C23.7193 35.9677 23.6479 36.0091 23.5736 36.0561C23.4993 36.1032 23.4218 36.1568 23.3415 36.2172L23.16 36.3536L23.1593 44.4239C23.1592 44.9762 23.6069 45.424 24.1593 45.424H32.0978L32.2327 45.2405C32.9523 44.2626 32.8073 43.7534 32.503 43.0883C32.3664 42.7888 32.2255 42.4792 32.1805 41.9805C32.1645 41.7975 32.1609 41.6258 32.1693 41.4656C32.1721 41.4189 32.1829 41.3795 32.1878 41.3345C32.199 41.2253 32.2094 41.1162 32.2339 41.0188C32.2464 40.9656 32.2705 40.9214 32.2865 40.8715C32.3134 40.7928 32.3367 40.7116 32.3737 40.6418C32.4014 40.5878 32.4391 40.5448 32.4725 40.497C32.5102 40.4414 32.5431 40.3825 32.5877 40.3334C32.613 40.3066 32.6403 40.2855 32.6668 40.2612C32.7057 40.2243 32.7455 40.1878 32.7873 40.1569C32.8102 40.1407 32.8326 40.1265 32.8563 40.1119C32.9109 40.0754 32.9659 40.0429 33.0226 40.0145C33.0286 40.0116 33.0338 40.0092 33.0394 40.006C33.4233 39.8246 33.8208 39.8084 33.961 39.8079H33.965H33.9806H34.0132C34.0132 39.8079 34.0288 39.8075 34.0521 39.8075C34.0537 39.8075 34.0581 39.8079 34.0597 39.8079C34.0802 39.8079 34.1083 39.8084 34.1449 39.8104C34.1593 39.8116 34.1762 39.8132 34.1926 39.8144C34.2207 39.8161 34.2489 39.8193 34.2822 39.8234C34.3075 39.8258 34.3336 39.8299 34.3613 39.8343C34.393 39.8392 34.4235 39.8453 34.4573 39.8514C34.4898 39.8575 34.5215 39.8648 34.5556 39.8733C34.5898 39.881 34.6235 39.8907 34.6592 39.9013C34.6954 39.9122 34.7295 39.9232 34.7664 39.9366C34.8038 39.95 34.8395 39.965 34.8773 39.9808C34.9134 39.9958 34.9475 40.0117 34.9833 40.0299C35.023 40.0498 35.0608 40.0741 35.0997 40.0977C35.1322 40.1176 35.164 40.1366 35.1949 40.1602C35.237 40.1906 35.276 40.2267 35.3149 40.2632C35.3402 40.2868 35.3663 40.3071 35.3904 40.333C35.437 40.3838 35.4727 40.4462 35.5121 40.5039C35.5434 40.5497 35.58 40.5911 35.6056 40.6418C35.6422 40.712 35.6655 40.794 35.6928 40.8727C35.7096 40.9222 35.7325 40.966 35.7454 41.0188C35.7695 41.1158 35.7807 41.2253 35.7916 41.3341C35.7964 41.3795 35.8072 41.4189 35.81 41.4664C35.8189 41.6271 35.8153 41.7983 35.7988 41.9813C35.7542 42.4808 35.6125 42.7896 35.4756 43.0891C35.1716 43.7546 35.0262 44.2634 35.747 45.2422L35.8819 45.4252H43.8189C44.3712 45.4252 44.8189 44.9775 44.8189 44.4252L44.8193 36.8185C45.2686 36.5227 45.4417 36.5751 45.8561 36.7682C46.1693 36.9147 46.5985 37.1148 47.2474 37.1748C48.3343 37.2759 49.1177 37.0153 49.6707 36.4245C50.4324 35.6113 50.3794 34.4655 50.3766 34.4655C50.3814 34.4172 50.4357 33.2692 49.6735 32.4556ZM49.0206 35.7993C48.6637 36.1803 48.1087 36.3422 47.3313 36.2688C46.8382 36.2237 46.5319 36.0805 46.2364 35.9429C45.9714 35.8192 45.6967 35.6909 45.359 35.6909C44.9751 35.6909 44.5884 35.8533 44.1038 36.2168L43.9223 36.3532V43.515C43.9223 44.0673 43.4746 44.515 42.9223 44.515H36.3444C36.3416 44.5102 36.3372 44.5049 36.3344 44.5012C36.3208 44.4801 36.3103 44.4611 36.2971 44.4408C36.2742 44.403 36.2517 44.3661 36.234 44.3324C36.222 44.3105 36.2143 44.291 36.2047 44.2707C36.1915 44.2415 36.179 44.2131 36.1694 44.1859C36.1621 44.1665 36.1573 44.1478 36.1525 44.1283C36.1461 44.1036 36.1405 44.0788 36.1381 44.0549C36.1356 44.0374 36.134 44.0192 36.1332 44.0021C36.1328 43.9778 36.1332 43.9542 36.1356 43.9307C36.1372 43.9145 36.1393 43.8974 36.1421 43.8812C36.1461 43.8556 36.1533 43.8305 36.1605 43.8041C36.1654 43.7883 36.169 43.7733 36.1738 43.757C36.1846 43.7262 36.1971 43.6941 36.2115 43.6609C36.2168 43.6483 36.2212 43.6361 36.2264 43.6227C36.2469 43.5756 36.2698 43.5253 36.2947 43.4701C36.4392 43.1532 36.6376 42.7194 36.697 42.0629C36.7191 41.8133 36.7215 41.5767 36.7066 41.3532C36.7002 41.2647 36.6777 41.1864 36.6657 41.1012C36.6472 40.9734 36.6332 40.8411 36.601 40.7238C36.5777 40.6378 36.538 40.5631 36.5075 40.4832C36.4673 40.3789 36.4332 40.2705 36.381 40.1752C36.3412 40.1026 36.287 40.0413 36.2408 39.9747C36.1846 39.8936 36.1372 39.8063 36.071 39.7329C36.0614 39.7227 36.0513 39.7154 36.0417 39.7049C36.0365 39.6996 36.0333 39.6923 36.0284 39.6874C36.0019 39.6603 35.9726 39.6416 35.9457 39.616C35.8799 39.5531 35.8132 39.4923 35.7437 39.4403C35.7036 39.4099 35.6626 39.3851 35.6225 39.3579C35.5566 39.3149 35.4904 39.2735 35.4241 39.2387C35.3808 39.2163 35.339 39.196 35.2964 39.1762C35.231 39.1453 35.1655 39.1181 35.1009 39.0938C35.0587 39.0788 35.0182 39.0634 34.9772 39.0508C34.9138 39.0301 34.8523 39.0126 34.7909 38.998C34.7532 38.9883 34.7154 38.9781 34.6789 38.97C34.6182 38.9574 34.5636 38.9481 34.509 38.9396C34.4773 38.9347 34.4468 38.9286 34.4179 38.9258C34.3581 38.9181 34.3063 38.9132 34.2573 38.91C34.2424 38.9088 34.2247 38.9071 34.2119 38.9059C34.1476 38.9023 34.0918 38.9006 34.0513 38.9006H33.9344C33.8605 38.9006 33.7377 38.9071 33.5903 38.925C33.5779 38.9266 33.5662 38.9278 33.5526 38.9299C33.4711 38.9412 33.3847 38.9546 33.29 38.9749C33.2715 38.979 33.2526 38.9846 33.2341 38.9883C33.1566 39.0065 33.0787 39.0276 32.9968 39.0544C32.9631 39.0654 32.931 39.0776 32.8968 39.0901C32.8262 39.1157 32.7547 39.1457 32.6828 39.1786C32.6431 39.1969 32.6041 39.2163 32.5648 39.2374C32.4957 39.274 32.4283 39.3158 32.3604 39.36C32.3206 39.3868 32.2805 39.4115 32.2415 39.4407C32.1721 39.4935 32.105 39.5548 32.0384 39.6172C32.0115 39.6428 31.9822 39.6615 31.9561 39.6887C31.9508 39.6939 31.9476 39.7012 31.9428 39.7061C31.9332 39.7171 31.9231 39.7236 31.9135 39.7341C31.8476 39.8067 31.8007 39.8948 31.7444 39.9751C31.6979 40.0417 31.6433 40.1038 31.6035 40.1756C31.5513 40.2706 31.5172 40.3793 31.4774 40.484C31.4461 40.5647 31.4067 40.6386 31.3835 40.7238C31.3505 40.8419 31.3373 40.9734 31.3188 41.102C31.3064 41.1868 31.2839 41.2651 31.2779 41.354C31.263 41.5772 31.2654 41.8137 31.2875 42.0637C31.3469 42.7194 31.5453 43.1532 31.6898 43.4697C31.7151 43.5253 31.7376 43.5756 31.7581 43.6231C31.7633 43.6357 31.7677 43.6466 31.7717 43.6588C31.7862 43.6941 31.7999 43.7266 31.8103 43.7586C31.8155 43.7737 31.8191 43.7883 31.8227 43.8029C31.8312 43.8301 31.8376 43.8572 31.8424 43.8836C31.8448 43.8986 31.846 43.9145 31.8476 43.9295C31.8504 43.9542 31.8517 43.9798 31.8504 44.0054C31.85 44.0212 31.848 44.0382 31.8464 44.0536C31.8428 44.0796 31.8376 44.1056 31.8308 44.1324C31.826 44.1494 31.8211 44.1677 31.8151 44.1851C31.8051 44.2135 31.7922 44.2439 31.7778 44.2748C31.7681 44.293 31.7609 44.3117 31.7509 44.3316C31.7324 44.3669 31.7087 44.4055 31.6842 44.4456C31.673 44.4639 31.6633 44.4821 31.6501 44.5012C31.6473 44.5061 31.6429 44.5114 31.64 44.5158L25.0596 44.5144C24.5074 44.5143 24.0598 44.0666 24.0598 43.5144V36.8186C24.5079 36.5236 24.6806 36.5739 25.0966 36.7691C25.4102 36.9151 25.8391 37.1152 26.4871 37.1753C26.6316 37.1878 26.773 37.1951 26.9087 37.1951C27.1175 37.1951 27.3147 37.1781 27.501 37.1473C27.5456 37.1395 27.5845 37.1241 27.6275 37.1144C27.7648 37.0852 27.8997 37.0539 28.0238 37.0073C28.0848 36.985 28.1382 36.9509 28.1965 36.9241C28.2936 36.8786 28.392 36.8344 28.4811 36.7776C28.5406 36.7394 28.592 36.6904 28.6466 36.6465C28.71 36.597 28.7791 36.5544 28.8373 36.4976C28.8522 36.483 28.8618 36.4668 28.8759 36.4522C28.8867 36.4412 28.8987 36.4351 28.9088 36.4242C28.9485 36.3816 28.9778 36.3349 29.0136 36.2902C29.0549 36.2387 29.0987 36.1892 29.1348 36.1365C29.1734 36.0788 29.2043 36.0212 29.2372 35.9624C29.2686 35.908 29.3007 35.8544 29.3268 35.7992C29.3537 35.7428 29.3734 35.6877 29.3958 35.6321C29.4179 35.5765 29.4424 35.5201 29.4601 35.4653C29.477 35.4138 29.4882 35.3659 29.5015 35.3164C29.5163 35.26 29.534 35.2036 29.5452 35.1508C29.5541 35.1094 29.5585 35.0737 29.5657 35.0356C29.5753 34.98 29.5862 34.924 29.5922 34.8749C29.5958 34.8489 29.597 34.8298 29.5994 34.8063C29.6046 34.7523 29.6107 34.6992 29.6127 34.6574C29.6127 34.6533 29.6127 34.6521 29.6131 34.6484C29.6155 34.592 29.6167 34.5466 29.6159 34.5145C29.6159 34.4825 29.6147 34.465 29.6147 34.465C29.6151 34.4541 29.6171 34.3863 29.6135 34.2893C29.6131 34.2723 29.6135 34.2621 29.6123 34.2435C29.6107 34.2069 29.605 34.1623 29.601 34.1193C29.5982 34.084 29.5962 34.0544 29.5914 34.0158C29.5862 33.974 29.5769 33.9261 29.5693 33.8799C29.5617 33.8308 29.5557 33.7853 29.544 33.7326C29.534 33.6867 29.5187 33.6376 29.5063 33.5897C29.4918 33.5317 29.4774 33.4753 29.4585 33.4153C29.4428 33.3662 29.4207 33.3167 29.4011 33.2663C29.377 33.2034 29.3545 33.1422 29.3244 33.0785C29.3011 33.0281 29.2706 32.979 29.2421 32.9295C29.2067 32.8666 29.1738 32.8042 29.1312 32.7425C29.0975 32.693 29.057 32.6467 29.0184 32.5984C28.9807 32.5518 28.9505 32.5027 28.9076 32.4572C28.8975 32.4463 28.8847 32.441 28.8747 32.43C28.8602 32.4154 28.8506 32.3984 28.8357 32.3842C28.7823 32.3322 28.7169 32.2969 28.6586 32.2507C28.5727 32.1809 28.4896 32.1082 28.3948 32.0514C28.3482 32.0242 28.294 32.0072 28.245 31.9828C28.1141 31.9167 27.9812 31.853 27.8327 31.8108C27.8146 31.8055 27.7929 31.8043 27.7744 31.7994C27.5933 31.7511 27.4038 31.7146 27.1998 31.6996C26.9766 31.6838 26.7405 31.6838 26.4843 31.7073C25.8366 31.7674 25.4077 31.9678 25.0949 32.1139C24.6781 32.3071 24.5063 32.3594 24.0582 32.0644L24.0578 25.3652C24.0578 24.8129 24.5055 24.3651 25.0578 24.3651H32.8727C32.8756 24.3692 32.88 24.3753 32.8828 24.3789C32.896 24.3996 32.9069 24.4179 32.9193 24.4382C32.9426 24.4763 32.9655 24.5145 32.9836 24.549C32.9944 24.5688 33.002 24.5871 33.0113 24.6066C33.0249 24.6374 33.039 24.6679 33.049 24.6959C33.055 24.7133 33.0599 24.7316 33.0639 24.7486C33.0711 24.7754 33.0763 24.8014 33.0795 24.8269C33.0819 24.8432 33.0831 24.8602 33.0835 24.876C33.0848 24.9016 33.0835 24.9263 33.0811 24.9519C33.0795 24.9665 33.0783 24.9823 33.0751 24.9978C33.0703 25.0245 33.0631 25.0517 33.0554 25.0797C33.0514 25.0935 33.0482 25.1077 33.043 25.1215C33.0317 25.1544 33.0185 25.1877 33.0044 25.2226C32.9992 25.2347 32.9956 25.2457 32.99 25.2583C32.9695 25.3053 32.9466 25.3557 32.9217 25.4108C32.7768 25.7274 32.578 26.1611 32.5186 26.8173C32.4965 27.0676 32.4941 27.305 32.5097 27.5286C32.5158 27.6061 32.5354 27.6735 32.5459 27.7473C32.5652 27.8873 32.5812 28.0298 32.6162 28.158C32.639 28.2404 32.6772 28.3114 32.7065 28.3889C32.7467 28.4968 32.7828 28.6076 32.8366 28.7058C32.8751 28.7772 32.9294 28.8381 32.9755 28.9046C33.0317 28.9858 33.0791 29.0738 33.1458 29.1477C33.1554 29.1586 33.1655 29.1651 33.1751 29.1757C33.1803 29.181 33.1835 29.1883 33.1883 29.1931C33.214 29.2203 33.2434 29.239 33.2707 29.2646C33.3373 29.3274 33.404 29.3883 33.4738 29.4411C33.5128 29.4707 33.5537 29.4954 33.5939 29.5222C33.6598 29.5652 33.7264 29.607 33.7935 29.6427C33.836 29.6651 33.8782 29.6853 33.92 29.7052C33.9858 29.7357 34.0509 29.7629 34.1155 29.7872C34.1581 29.803 34.2002 29.818 34.2416 29.8314C34.3038 29.8509 34.3621 29.868 34.4215 29.8822C34.4628 29.8923 34.503 29.9033 34.5427 29.9118C34.5953 29.9227 34.6439 29.9304 34.6925 29.9386C34.7315 29.945 34.7712 29.9519 34.8066 29.956C34.8487 29.9613 34.8832 29.9645 34.9206 29.9674C34.9531 29.9702 34.986 29.9739 35.0129 29.9759C35.0748 29.9795 35.1262 29.9808 35.1659 29.9808H35.2828C35.3033 29.9808 35.335 29.9791 35.3619 29.9783C35.3816 29.9779 35.3972 29.9779 35.4205 29.9767C35.4542 29.9751 35.4956 29.9706 35.5349 29.967C35.5627 29.9645 35.5863 29.9633 35.6173 29.9597C35.6558 29.9548 35.702 29.9471 35.7446 29.9402C35.7823 29.9341 35.8164 29.93 35.8566 29.9227C35.8987 29.915 35.9441 29.902 35.9891 29.8911C36.0353 29.8801 36.0794 29.8712 36.128 29.857C36.1702 29.8444 36.2144 29.8274 36.2577 29.8128C36.3115 29.7953 36.3637 29.7783 36.4191 29.7564C36.4613 29.7393 36.5039 29.7162 36.5464 29.6959C36.6034 29.6691 36.6593 29.6444 36.7163 29.6123C36.7584 29.5888 36.799 29.5592 36.8399 29.5316C36.897 29.495 36.9528 29.4614 37.0078 29.4184C37.0491 29.3863 37.0881 29.3469 37.1278 29.3112C37.1724 29.2719 37.2182 29.2366 37.2616 29.1923C37.2676 29.1863 37.2704 29.1789 37.276 29.1725C37.2848 29.1627 37.2953 29.1566 37.3041 29.1465C37.3676 29.0755 37.4137 28.9903 37.4684 28.9119C37.5169 28.843 37.5732 28.7784 37.6141 28.7042C37.6667 28.6072 37.7017 28.4976 37.7426 28.3913C37.7727 28.3126 37.8117 28.24 37.8342 28.1564C37.8695 28.029 37.8852 27.8878 37.9036 27.749C37.9145 27.6731 37.9341 27.6049 37.9402 27.5258C37.9558 27.3022 37.9534 27.0652 37.9313 26.8145C37.8715 26.1595 37.6735 25.7254 37.5282 25.4085C37.5029 25.3533 37.4804 25.303 37.4599 25.2559C37.4539 25.2433 37.4499 25.2303 37.4451 25.2177C37.4314 25.1845 37.4182 25.1524 37.4073 25.1216C37.4021 25.1053 37.3985 25.0899 37.3941 25.0749C37.3864 25.0481 37.3796 25.023 37.3756 24.9974C37.3728 24.9812 37.3708 24.9641 37.3692 24.9479C37.3668 24.9243 37.3664 24.9 37.3668 24.8765C37.3672 24.8594 37.3692 24.8412 37.3716 24.8237C37.3744 24.8002 37.38 24.7754 37.386 24.7499C37.3909 24.7312 37.3961 24.7121 37.4029 24.6931C37.4125 24.6663 37.4246 24.6379 37.4378 24.6087C37.4479 24.588 37.4559 24.5681 37.468 24.5458C37.4848 24.5129 37.5065 24.478 37.529 24.4415C37.5414 24.4196 37.5535 24.3997 37.5687 24.3761C37.5711 24.3725 37.5748 24.3676 37.5776 24.3636H42.9211C43.4734 24.3636 43.9211 24.8113 43.9211 25.3636V32.5258L44.1026 32.6626C44.5872 33.0261 44.9739 33.1872 45.3578 33.1872C45.6955 33.1872 45.9701 33.0594 46.2352 32.9353C46.5315 32.7973 46.8371 32.6549 47.3301 32.6094C48.1043 32.5368 48.6584 32.6975 49.0146 33.074C49.5109 33.5987 49.4804 34.407 49.48 34.4643C49.4816 34.4728 49.5109 35.2758 49.0206 35.7993Z" fill="white"/>
<path d="M35.0003 3C26.9894 3 19.4388 5.98178 13.5987 11.4126L13.5991 4.61962C13.5991 4.34347 13.3752 4.11959 13.0991 4.11959C12.8229 4.11959 12.5991 4.34343 12.5991 4.61957L12.5987 12.0958C12.5987 12.6481 13.0464 13.0958 13.5987 13.0958L21.0564 13.0954C21.3331 13.0954 21.5573 12.8711 21.5573 12.5944C21.5573 12.3177 21.333 12.0934 21.0563 12.0935L14.3344 12.0939C19.9814 6.86879 27.2696 4.00198 35 4.00198C51.8176 4.00198 65.499 17.7102 65.499 34.5607C65.499 42.7268 62.3244 50.4023 56.5595 56.1737C55.6863 57.0482 54.751 57.8776 53.7809 58.6381C53.6836 58.7138 53.6658 58.8539 53.741 58.9516L54.0761 59.387C54.1531 59.4871 54.2968 59.5055 54.3966 59.428C55.3997 58.6412 56.3654 57.7845 57.2671 56.8815C63.2204 50.9215 66.499 42.9934 66.499 34.5608C66.499 17.1572 52.3687 3 35.0003 3Z" fill="white"/>
<path d="M4.51131 33.7616C4.51833 33.4858 4.30454 33.2531 4.02885 33.2415C3.75284 33.2299 3.51926 33.4442 3.512 33.7203C3.50465 33.9996 3.50098 34.2795 3.50098 34.5606C3.50098 36.942 3.76657 39.3123 4.29047 41.6139C4.35181 41.8833 4.62316 42.0476 4.89156 41.9817C5.15967 41.9159 5.32333 41.6454 5.26217 41.3762C4.7569 39.1523 4.501 36.8621 4.501 34.5606C4.501 34.2938 4.50454 34.0273 4.51131 33.7616Z" fill="#FF4500"/>
<path d="M38.2006 64.9541C37.9256 64.9829 37.7218 65.2254 37.746 65.5009C37.7701 65.7765 38.0133 65.9808 38.2885 65.9521C40.93 65.6771 43.5187 65.0706 45.9971 64.1449C46.2561 64.0482 46.3829 63.7575 46.2822 63.5C46.1814 63.2424 45.8909 63.1156 45.6317 63.2123C43.2418 64.1028 40.7466 64.6878 38.2006 64.9541Z" fill="#FF4500"/>
<path d="M20.7197 62.1364C20.5926 62.3814 20.6878 62.6835 20.9345 62.8071C23.3058 63.9951 25.8144 64.8755 28.4051 65.429C28.6761 65.4869 28.9399 65.3093 28.9932 65.0374C29.0464 64.7658 28.8694 64.5029 28.5988 64.445C26.1017 63.9106 23.6838 63.0625 21.397 61.9193C21.1495 61.7955 20.8471 61.8908 20.7197 62.1364Z" fill="#FF4500"/>
<path d="M8.16862 50.1273C7.93024 50.2662 7.84885 50.572 7.99085 50.8085C9.35526 53.081 11.0003 55.1732 12.89 57.0387C13.0869 57.233 13.4043 57.2254 13.5952 57.0252C13.7855 56.8254 13.7779 56.5096 13.5817 56.3156C11.7606 54.5155 10.1746 52.498 8.85697 50.3068C8.71432 50.0696 8.40781 49.988 8.16862 50.1273Z" fill="#FF4500"/>
<path d="M5.33195 23.9346C5.23925 24.1945 5.37957 24.4782 5.64079 24.5671C5.90254 24.6561 6.18647 24.5157 6.27956 24.2554C6.60849 23.3355 6.98471 22.4255 7.40171 21.5392C7.5192 21.2895 7.41754 20.9903 7.16998 20.8683C6.92193 20.7462 6.62145 20.8483 6.50357 21.0984C6.06757 22.0234 5.67462 22.9739 5.33195 23.9346Z" fill="#FF4500"/>
</svg>
