<svg width="68" height="64" viewBox="0 0 68 64" fill="none" xmlns="http://www.w3.org/2000/svg">
<path d="M44.5137 61.8229L41.7487 60.2247V61.29L2.13546 61.2904V21.7593H3.20295L1.60148 19L0 21.7593H1.06749L1.06786 61.8231C1.06786 61.9647 1.12409 62.0999 1.22425 62.1999C1.32441 62.2998 1.45995 62.3559 1.6018 62.3559H41.7431V63.4212L44.5137 61.8229Z" fill="#FF4500"/>
<path d="M4.90699 44.8197H9.3107C9.6056 44.8197 9.84464 45.114 9.84464 45.3525V58.5052C9.84464 58.7994 9.6056 59.038 9.3107 59.038H4.90699C4.61209 59.038 4.37305 58.7437 4.37305 58.5052V45.3525C4.37305 45.0583 4.61209 44.8197 4.90699 44.8197V44.8197Z" fill="#6F6F6F"/>
<path d="M12.6091 38.2306C12.3142 38.2306 12.0752 38.4691 12.0752 38.7634V58.5052C12.0752 58.6464 12.1314 58.782 12.2316 58.882C12.3317 58.9819 12.4673 59.038 12.6091 59.038H17.0077H17.0073C17.1492 59.038 17.2847 58.9819 17.3849 58.882C17.485 58.782 17.5412 58.6464 17.5412 58.5052V38.7634C17.5412 38.6222 17.485 38.4866 17.3849 38.3867C17.2847 38.2867 17.1492 38.2306 17.0073 38.2306L12.6091 38.2306ZM16.4737 57.9723H13.1427V39.296H16.4737V57.9723Z" fill="#6F6F6F"/>
<path d="M20.3064 39.8762H24.705C24.9999 39.8762 25.2389 40.1704 25.2389 40.409V58.5042C25.2389 58.7985 24.9999 59.037 24.705 59.037H20.3064C20.0115 59.037 19.7725 58.7427 19.7725 58.5042V40.409C19.7725 40.1147 20.0115 39.8762 20.3064 39.8762V39.8762Z" fill="#6F6F6F"/>
<path d="M28.009 34.2563C27.7141 34.2563 27.4751 34.4945 27.4751 34.7888V58.5038C27.4751 58.645 27.5313 58.7807 27.6315 58.8806C27.7316 58.9806 27.8676 59.0367 28.009 59.0367H32.402C32.5438 59.0367 32.6794 58.9806 32.7795 58.8806C32.8797 58.7807 32.9359 58.645 32.9359 58.5038V34.7888C32.9359 34.6476 32.8797 34.512 32.7795 34.412C32.6794 34.3125 32.5438 34.2564 32.402 34.2564L28.009 34.2563ZM31.8684 57.9714H28.5426V35.3217H31.8684V57.9714Z" fill="#6F6F6F"/>
<path d="M35.7117 30.5437H40.1154C40.4103 30.5437 40.6493 30.838 40.6493 31.0765V58.5042C40.6493 58.7985 40.4103 59.037 40.1154 59.037H35.7117C35.4168 59.037 35.1777 58.7428 35.1777 58.5042V31.0765C35.1777 30.7822 35.4168 30.5437 35.7117 30.5437V30.5437Z" fill="#6F6F6F"/>
<path d="M16.0149 33.484L22.8634 35.9717C23.0455 36.0389 23.2499 36.0021 23.3974 35.8758L31.0304 29.345L39.2082 26.0849L38.808 25.0943L30.5501 28.386C30.4957 28.4079 30.4451 28.4384 30.4004 28.4767L22.9275 34.8688L16.0898 32.376C15.9073 32.3087 15.7029 32.3451 15.5558 32.4718L7.31396 39.4499L8.00243 40.2648L16.0149 33.484Z" fill="#FF4500"/>
<g clip-path="url(#clip0_515_2022)">
<path d="M63.3275 11.7148C63.8422 17.5846 59.491 22.7629 53.6041 23.2771C47.7172 23.7912 42.5307 19.4458 42.016 13.5761C41.5012 7.70631 45.8524 2.52796 51.7393 2.01381C57.6263 1.49967 62.8127 5.84504 63.3275 11.7148Z" stroke="white" stroke-width="2"/>
</g>
<line x1="55.8418" y1="24.0525" x2="61.0525" y2="43.1582" stroke="white" stroke-width="3" stroke-linecap="round"/>
<path d="M42.1256 24.2044L40.1704 26.95L39.7005 25.9199L33.17 28.49L32.76 27.4999L39.3003 24.87L38.8612 23.8612L42.1256 24.2044Z" fill="#FF4500"/>
<defs>
<clipPath id="clip0_515_2022">
<rect width="27.2514" height="47.0461" fill="white" transform="translate(40)"/>
</clipPath>
</defs>
</svg>
