<svg width="68" height="64" viewBox="0 0 68 64" fill="none" xmlns="http://www.w3.org/2000/svg">
<path d="M44.5137 62.4018L41.7487 60.8036V61.8689L2.13546 61.8693V22.3382H3.20295L1.60148 19.5789L0 22.3382H1.06749L1.06786 62.4019C1.06786 62.5435 1.12409 62.6788 1.22425 62.7787C1.32441 62.8787 1.45995 62.9348 1.6018 62.9348H41.7431V64.0001L44.5137 62.4018Z" fill="#FF4500"/>
<path d="M4.90699 45.3986H9.3107C9.6056 45.3986 9.84464 45.6928 9.84464 45.9314V59.084C9.84464 59.3783 9.6056 59.6168 9.3107 59.6168H4.90699C4.61209 59.6168 4.37305 59.3226 4.37305 59.084V45.9314C4.37305 45.6371 4.61209 45.3986 4.90699 45.3986V45.3986Z" fill="#6F6F6F"/>
<path d="M12.6091 38.8094C12.3142 38.8094 12.0752 39.048 12.0752 39.3423V59.084C12.0752 59.2252 12.1314 59.3609 12.2316 59.4608C12.3317 59.5608 12.4673 59.6169 12.6091 59.6169H17.0077H17.0073C17.1492 59.6169 17.2847 59.5608 17.3849 59.4608C17.485 59.3609 17.5412 59.2252 17.5412 59.084V39.3423C17.5412 39.2011 17.485 39.0655 17.3849 38.9655C17.2847 38.8656 17.1492 38.8095 17.0073 38.8095L12.6091 38.8094ZM16.4737 58.5512H13.1427V39.8748H16.4737V58.5512Z" fill="#6F6F6F"/>
<path d="M20.3064 40.455H24.705C24.9999 40.455 25.2389 40.7493 25.2389 40.9879V59.083C25.2389 59.3773 24.9999 59.6159 24.705 59.6159H20.3064C20.0115 59.6159 19.7725 59.3216 19.7725 59.083V40.9879C19.7725 40.6936 20.0115 40.455 20.3064 40.455V40.455Z" fill="#6F6F6F"/>
<path d="M28.009 34.8352C27.7141 34.8352 27.4751 35.0734 27.4751 35.3677V59.0827C27.4751 59.2239 27.5313 59.3595 27.6315 59.4595C27.7316 59.5594 27.8676 59.6155 28.009 59.6155H32.402C32.5438 59.6155 32.6794 59.5594 32.7795 59.4595C32.8797 59.3595 32.9359 59.2239 32.9359 59.0827V35.3677C32.9359 35.2265 32.8797 35.0908 32.7795 34.9909C32.6794 34.8913 32.5438 34.8352 32.402 34.8352L28.009 34.8352ZM31.8684 58.5502H28.5426V35.9006H31.8684V58.5502Z" fill="#6F6F6F"/>
<path d="M35.7117 31.1226H40.1154C40.4103 31.1226 40.6493 31.4168 40.6493 31.6554V59.0831C40.6493 59.3774 40.4103 59.6159 40.1154 59.6159H35.7117C35.4168 59.6159 35.1777 59.3216 35.1777 59.0831V31.6554C35.1777 31.3611 35.4168 31.1226 35.7117 31.1226V31.1226Z" fill="#6F6F6F"/>
<path d="M16.0149 34.0629L22.8634 36.5505C23.0455 36.6178 23.2499 36.581 23.3974 36.4546L31.0304 29.9239L39.2082 26.6638L38.808 25.6732L30.5501 28.9649C30.4957 28.9868 30.4451 29.0173 30.4004 29.0555L22.9275 35.4477L16.0898 32.9548C15.9073 32.8876 15.7029 32.924 15.5558 33.0507L7.31396 40.0288L8.00243 40.8436L16.0149 34.0629Z" fill="#FF4500"/>
<path d="M64.076 11.7148C64.5908 17.5846 60.2396 22.7629 54.3526 23.2771C48.4657 23.7912 43.2793 19.4458 42.7645 13.5761C42.2497 7.70631 46.6009 2.52796 52.4879 2.01381C58.3748 1.49967 63.5612 5.84504 64.076 11.7148Z" stroke="white" stroke-width="2"/>
<line x1="1" y1="-1" x2="22.379" y2="-1" transform="matrix(0.246992 0.969077 -0.967509 0.252603 54.896 22.995)" stroke="white" stroke-width="2" stroke-linecap="round"/>
<path d="M41.1253 25.2044L39.195 27.854L37.8607 24.8613L41.1253 25.2044Z" fill="#FF4500"/>
</svg>
