<svg width="70" height="70" viewBox="0 0 70 70" fill="none" xmlns="http://www.w3.org/2000/svg">
<path d="M23.6851 36.2318C28.5427 27.78 36.3119 19.4406 48.7281 14.9849C49.1285 14.8413 49.5712 15.0468 49.7164 15.4442C49.8622 15.8418 49.6546 16.2794 49.2534 16.4244C19.0335 27.2709 17.2035 62.0014 17.1889 62.3503C17.172 62.7722 16.8116 63.1006 16.3851 63.0826C15.9591 63.0648 15.6291 62.7086 15.6463 62.2862C15.6555 62.0696 16.334 49.0221 23.6852 36.2317L23.6851 36.2318Z" fill="#FF4500"/>
<path d="M37.2626 12.4764C37.4311 12.1832 37.782 12.0264 38.1274 12.1154L49.9568 15.1624L46.7963 25.7974C46.6782 26.2013 46.247 26.4351 45.8374 26.3154C45.4284 26.1959 45.1945 25.7706 45.3152 25.3643L48.0241 16.2459L37.7384 13.5966C37.3261 13.4901 37.0783 13.0728 37.1857 12.6628C37.2041 12.5963 37.2302 12.5337 37.2625 12.4764L37.2626 12.4764Z" fill="#FF4500"/>
<path d="M21.8626 15.1347C21.7163 15.1629 21.5647 15.1321 21.4411 15.0492L8.34139 6.17199C8.17528 6.05932 8.0823 5.86742 8.09755 5.66844C8.11278 5.46935 8.23384 5.29359 8.41531 5.20715C8.59664 5.12074 8.81068 5.13689 8.97691 5.24942L22.0767 14.1266C22.2005 14.2098 22.2857 14.3386 22.3134 14.4844C22.341 14.6303 22.3089 14.781 22.224 14.9031C22.1393 15.0248 22.0094 15.1082 21.8626 15.1347L21.8626 15.1347Z" fill="white"/>
<path d="M10.8371 17.1923C10.6908 17.2205 10.5392 17.1897 10.4156 17.1068C10.2918 17.0237 10.2066 16.8949 10.1789 16.749C10.1513 16.6032 10.1835 16.4525 10.2683 16.3304L19.2185 3.33744C19.3321 3.17268 19.5256 3.08046 19.7262 3.09558C19.9269 3.11068 20.1041 3.23076 20.1913 3.41075C20.2784 3.5906 20.2621 3.8029 20.1487 3.96777L11.1985 16.9607C11.1138 17.0824 10.9839 17.1658 10.8371 17.1923L10.8371 17.1923Z" fill="white"/>
<path d="M59.9998 50.2299C59.9998 52.6057 58.0535 54.5596 55.6181 54.5596C53.1826 54.5596 51.2363 52.6057 51.2363 50.2299C51.2363 47.854 53.1826 45.9001 55.6181 45.9001C58.0535 45.9001 59.9998 47.854 59.9998 50.2299Z" stroke="white" stroke-width="4"/>
<path d="M42.6801 36.2684L47.6769 31.3123C47.7736 31.2277 47.7855 31.24 47.8718 31.2427C48.0596 31.2723 48.1529 31.5049 48.0208 31.6534L43.024 36.6095L48.0208 41.5655C48.087 41.6398 48.0903 41.673 48.092 41.7285C48.0979 41.9149 47.8429 42.0519 47.6769 41.9066L42.6801 36.9506L37.6833 41.9066C37.4657 42.097 37.3699 41.9589 37.3102 41.8716C37.2469 41.7792 37.2629 41.6515 37.3394 41.5655L42.3362 36.6095L37.3394 31.6534C37.2032 31.5002 37.308 31.2219 37.5495 31.2446C37.6491 31.2667 37.6259 31.2621 37.6833 31.3123L42.6801 36.2684Z" fill="white"/>
<path d="M46.2801 7.62258L47.9706 5.94591C48.0033 5.9173 48.0073 5.92146 48.0365 5.92237C48.1001 5.93236 48.1316 6.01107 48.0869 6.06131L46.3965 7.73798L48.0869 9.41465C48.1093 9.43978 48.1104 9.451 48.111 9.46978C48.113 9.53284 48.0268 9.57918 47.9706 9.53005L46.2801 7.85338L44.5897 9.53005C44.5161 9.59444 44.4837 9.54772 44.4635 9.5182C44.442 9.48695 44.4475 9.44374 44.4733 9.41464L46.1638 7.73798L44.4733 6.06131C44.4272 6.00947 44.4627 5.91534 44.5444 5.92302C44.5781 5.93048 44.5703 5.92894 44.5897 5.9459L46.2801 7.62258Z" fill="white"/>
<path d="M21.6141 27.2845C21.6141 29.6263 19.699 31.5318 17.3278 31.5318C14.9567 31.5318 13.0415 29.6263 13.0415 27.2845C13.0415 24.9426 14.9567 23.0372 17.3278 23.0372C19.699 23.0372 21.6141 24.9426 21.6141 27.2845Z" stroke="white"/>
<path d="M28.2457 49.0429C28.2457 50.4324 27.1095 51.5622 25.7036 51.5622C24.2978 51.5622 23.1616 50.4324 23.1616 49.0429C23.1616 47.6535 24.2978 46.5237 25.7036 46.5237C27.1095 46.5237 28.2457 47.6535 28.2457 49.0429Z" stroke="white" stroke-width="0.5"/>
</svg>
