<svg width="70" height="61" viewBox="0 0 70 61" fill="none" xmlns="http://www.w3.org/2000/svg">
<mask id="path-1-inside-1_141_3006" fill="white">
<path d="M48.5111 31.1207C48.5111 29.173 48.1177 27.2444 47.3533 25.445C46.5888 23.6455 45.4684 22.0105 44.0559 20.6333C42.6434 19.2561 40.9665 18.1636 39.121 17.4182C37.2755 16.6729 35.2976 16.2892 33.3 16.2892L33.3 31.1207H48.5111Z"/>
</mask>
<path d="M48.5111 31.1207C48.5111 29.173 48.1177 27.2444 47.3533 25.445C46.5888 23.6455 45.4684 22.0105 44.0559 20.6333C42.6434 19.2561 40.9665 18.1636 39.121 17.4182C37.2755 16.6729 35.2976 16.2892 33.3 16.2892L33.3 31.1207H48.5111Z" stroke="#FF4500" stroke-width="2" mask="url(#path-1-inside-1_141_3006)"/>
<path d="M29.8119 17.6375C23.0858 19.1928 18.0889 25.0005 18.0889 31.9272C18.0889 40.0453 24.9524 46.6262 33.419 46.6262C40.9625 46.6262 47.2334 41.4021 48.5111 34.5212" stroke="white" stroke-linecap="round"/>
<rect x="0.75" y="6.38025" width="65.1001" height="50.155" rx="0.75" stroke="white" stroke-width="1.5"/>
<line x1="8.86816" y1="10.3696" x2="8.86816" y2="1.71065" stroke="white" stroke-width="2" stroke-linecap="round"/>
<line x1="12.979" y1="10.3696" x2="12.979" y2="1.71065" stroke="white" stroke-width="2" stroke-linecap="round"/>
<line x1="52.4453" y1="10.3693" x2="52.4453" y2="1.71029" stroke="white" stroke-width="2" stroke-linecap="round"/>
<line x1="56.5571" y1="10.3693" x2="56.5571" y2="1.71029" stroke="white" stroke-width="2" stroke-linecap="round"/>
<path d="M57.7495 48.6037C57.7286 48.3644 57.8815 48.144 58.1134 48.079L64.881 46.1845C65.3324 46.0581 65.6942 46.5644 65.4274 46.9491L59.2708 55.8267C59.004 56.2114 58.4012 56.0525 58.3604 55.5867L57.7495 48.6037Z" stroke="white"/>
</svg>
