<svg width="64" height="64" viewBox="0 0 64 64" fill="none" xmlns="http://www.w3.org/2000/svg">
<path d="M59.3986 38.4C58.4371 38.4011 57.5154 38.8223 56.8357 39.5706C56.1555 40.3195 55.7735 41.3345 55.772 42.3931V60.0074C55.7735 61.066 56.1555 62.0809 56.8357 62.8293C57.5153 63.5776 58.4371 63.9988 59.3986 64H59.4586C60.4201 63.9988 61.3419 63.5776 62.022 62.8293C62.7022 62.081 63.0847 61.066 63.0863 60.0074V42.3874C63.0802 41.3193 62.6874 40.2982 61.9951 39.5498C61.3032 38.8015 60.3688 38.3881 59.3986 38.4005L59.3986 38.4ZM61.7021 60.0134C61.7011 60.6676 61.464 61.2955 61.0438 61.7582C60.6231 62.2208 60.0528 62.4813 59.4587 62.4818H59.3986C58.8045 62.479 58.2357 62.2169 57.817 61.7531C57.3978 61.2888 57.1633 60.6614 57.1638 60.0072V42.3872C57.2218 41.5375 57.6669 40.7785 58.3466 40.3713C59.0262 39.9641 59.8468 39.9641 60.5263 40.3713C61.2055 40.7785 61.6511 41.5375 61.7091 42.3872L61.7021 60.0134Z" fill="white"/>
<path d="M59.4293 36.5713C60.6419 36.5713 61.8046 36.0897 62.6619 35.2325C63.5191 34.3748 64.0008 33.2122 64.0008 32.0001C64.0008 30.7876 63.5191 29.625 62.6619 28.7672C61.8047 27.9101 60.642 27.4284 59.4293 27.4284C58.2167 27.4284 57.054 27.9101 56.1968 28.7672C55.3396 29.6249 54.8579 30.7876 54.8579 32.0001C54.8595 33.2116 55.3417 34.3737 56.1983 35.2304C57.0555 36.0875 58.2172 36.5697 59.4293 36.5712L59.4293 36.5713ZM59.4293 28.8724C60.259 28.8724 61.0547 29.2018 61.6413 29.7884C62.228 30.375 62.5574 31.1707 62.5574 32.0002C62.5574 32.8298 62.228 33.6249 61.6413 34.2115C61.0546 34.7981 60.2589 35.1275 59.4293 35.1275C58.5998 35.1275 57.804 34.7981 57.2174 34.2115C56.6307 33.6248 56.3013 32.8297 56.3013 32.0002C56.3024 31.1706 56.6323 30.3761 57.219 29.7895C57.8051 29.2034 58.6003 28.8734 59.4293 28.8724L59.4293 28.8724Z" fill="white"/>
<path d="M23.2528 46.4771H44.752C45.1409 46.4771 45.4559 46.1604 45.4559 45.7693C45.4559 45.3787 45.1409 45.0615 44.752 45.0615H23.9559V40.9332C23.9565 40.9244 23.9565 40.915 23.9559 40.9056C23.9559 40.8802 23.9534 40.8552 23.9487 40.8302C23.9461 40.8089 23.9425 40.7881 23.9373 40.7673C23.9321 40.7444 23.9249 40.7215 23.9166 40.6992C23.9094 40.6773 23.9006 40.6555 23.8918 40.6352C23.883 40.6149 23.8716 40.5957 23.8597 40.577C23.8484 40.5582 23.8339 40.5348 23.8194 40.5145C23.8049 40.4943 23.8106 40.4984 23.8049 40.4911L23.779 40.4651L23.7268 40.4111C23.7108 40.3965 23.6937 40.3835 23.6761 40.3705L23.6182 40.3299L23.5587 40.2977L23.5592 40.2972C23.539 40.2868 23.5183 40.2779 23.4966 40.2706C23.4749 40.2628 23.4527 40.2561 23.4304 40.2504C23.4092 40.2446 23.388 40.24 23.3663 40.2374C23.3409 40.2332 23.3156 40.2301 23.2897 40.2285H23.2302C23.2033 40.229 23.1759 40.2311 23.149 40.2358L23.0911 40.2462C23.0673 40.2524 23.0435 40.2602 23.0202 40.2696L22.9592 40.293L22.9597 40.2925C22.939 40.3029 22.9194 40.3138 22.9002 40.3263C22.879 40.3377 22.8583 40.3507 22.8392 40.3653L22.8159 40.3799L10.0621 50.6458H10.0626C9.89605 50.7805 9.79932 50.9834 9.79932 51.1981C9.79932 51.4124 9.89604 51.6157 10.0626 51.7499L22.8191 62.0159C22.8274 62.0226 22.8362 62.0284 22.8449 62.033C22.8594 62.0445 22.8744 62.0544 22.8899 62.0637C22.9122 62.0772 22.9349 62.0897 22.9582 62.1001L23.0048 62.122H23.0043C23.0311 62.1319 23.058 62.1402 23.0855 62.1469L23.1289 62.1584C23.1713 62.1667 23.2148 62.1709 23.2577 62.1714C23.3017 62.1709 23.3456 62.1662 23.3881 62.1568H23.3984C23.4372 62.148 23.4755 62.1355 23.5127 62.1204L23.5329 62.1116V62.1121C23.5691 62.096 23.6043 62.0767 23.6374 62.0549L23.6534 62.0434C23.687 62.0206 23.7186 61.9946 23.7475 61.9665C23.7636 61.9488 23.7806 61.9316 23.7967 61.9113C23.8127 61.8911 23.8055 61.8952 23.8112 61.8879L23.8515 61.8266L23.8836 61.7668C23.8924 61.7465 23.9012 61.7262 23.9084 61.7044C23.9162 61.682 23.9229 61.6591 23.9286 61.6357C23.9338 61.6149 23.9374 61.5941 23.94 61.5733C23.9446 61.5478 23.9472 61.5218 23.9472 61.4958C23.9482 61.487 23.9482 61.4787 23.9472 61.4698V57.3296H44.7525C45.1415 57.3296 45.4565 57.0128 45.4565 56.6223C45.4565 56.2312 45.1415 55.9145 44.7525 55.9145H23.2533C22.8649 55.915 22.5504 56.2317 22.5494 56.6223V59.9902L11.6261 51.1981L22.5478 42.3996V45.7676C22.5478 45.9558 22.6223 46.1363 22.7547 46.2694C22.8871 46.402 23.0661 46.4769 23.2533 46.4769L23.2528 46.4771Z" fill="#FF4500"/>
<path d="M46.0734 23.058H25.3601C24.9874 23.058 24.6855 23.2961 24.6855 23.5897C24.6855 23.8837 24.9874 24.1218 25.3601 24.1218H45.3996V28.7305V28.75V28.7504C45.3982 28.7696 45.3982 28.7891 45.3996 28.8083C45.4021 28.8243 45.4056 28.84 45.411 28.8552C45.411 28.8728 45.4234 28.8892 45.4304 28.9068C45.4373 28.9244 45.4457 28.9385 45.4542 28.9537L45.4849 28.9987H45.4844C45.4963 29.0147 45.5092 29.03 45.5231 29.0448C45.528 29.0511 45.533 29.0573 45.5384 29.0632C45.5528 29.0781 45.5687 29.0913 45.5855 29.1039C45.6133 29.1257 45.6435 29.1453 45.6757 29.1629L45.6926 29.1715V29.1719C45.7238 29.1883 45.7565 29.2028 45.7912 29.2145L45.8105 29.22C45.8462 29.2317 45.8834 29.2407 45.9216 29.2473H45.9355C45.9771 29.2532 46.0192 29.2567 46.0618 29.2571C46.1035 29.2567 46.1456 29.2532 46.1868 29.2473L46.2284 29.2387C46.2532 29.2333 46.2799 29.2278 46.3047 29.22L46.3503 29.2047C46.3711 29.1961 46.3934 29.1871 46.4143 29.1762C46.4296 29.1695 46.444 29.1617 46.4574 29.1531C46.4663 29.1492 46.4752 29.1449 46.4837 29.1398L63.7456 18.2395V18.2399C63.9062 18.139 63.9998 17.9861 63.9998 17.8243C63.9998 17.6624 63.9062 17.5096 63.7456 17.4091L46.4963 6.51373L46.474 6.50279C46.4547 6.49184 46.4339 6.48207 46.4131 6.47229L46.359 6.44922C46.3382 6.4414 46.3169 6.43476 46.2951 6.42968L46.2341 6.41443V6.41404C46.2133 6.41013 46.192 6.40739 46.1702 6.40544C46.1474 6.40192 46.1241 6.39996 46.1008 6.39996H46.0383L45.969 6.40544L45.9065 6.41638L45.8426 6.43163C45.8222 6.4375 45.8024 6.44375 45.7831 6.45157C45.7633 6.45861 45.7444 6.46721 45.7261 6.47659C45.7072 6.48519 45.6894 6.49458 45.6721 6.50513C45.6542 6.51491 45.6379 6.52585 45.622 6.53797C45.6046 6.55009 45.5883 6.56299 45.5734 6.57746C45.5576 6.58762 45.5437 6.60013 45.5333 6.6146C45.5194 6.62985 45.507 6.6451 45.4946 6.66152C45.4822 6.67794 45.4738 6.69006 45.4639 6.7053C45.454 6.72055 45.4485 6.73697 45.4401 6.75339C45.4317 6.76981 45.4262 6.7874 45.4208 6.805C45.4158 6.82064 45.4118 6.83628 45.4099 6.85191C45.4084 6.87107 45.4084 6.89023 45.4099 6.90899V6.92971V11.5384H25.3615C24.9887 11.5384 24.6869 11.7765 24.6869 12.0705C24.6869 12.3645 24.9887 12.6026 25.3615 12.6026H46.0747C46.447 12.6018 46.7483 12.3641 46.7493 12.0705V8.0365L62.2589 17.834L46.7493 27.6229V23.5897C46.7483 23.2961 46.447 23.0584 46.0747 23.058L46.0734 23.058Z" fill="white"/>
<path d="M8.68584 26.5144C7.83689 26.5144 7.02335 26.8515 6.42319 27.4516C5.82302 28.0518 5.48584 28.8658 5.48584 29.7141C5.48584 30.563 5.82296 31.377 6.42319 31.9771C7.02342 32.5772 7.8369 32.9144 8.68584 32.9144C9.53479 32.9144 10.3483 32.5773 10.9485 31.9771C11.5487 31.3769 11.8858 30.563 11.8858 29.7141C11.8853 28.8657 11.5477 28.0523 10.948 27.4527C10.3478 26.8525 9.53427 26.5154 8.68585 26.5144L8.68584 26.5144ZM8.68584 31.5142C7.95713 31.5142 7.29988 31.0754 7.02138 30.4017C6.74284 29.7286 6.89701 28.9536 7.41246 28.4388C7.9279 27.9234 8.70336 27.7697 9.37608 28.0493C10.0493 28.3283 10.4881 28.9855 10.4876 29.7141C10.4866 30.7084 9.68031 31.5142 8.68596 31.5142L8.68584 31.5142Z" fill="#FF4500"/>
<path d="M17.3714 8.49936C17.3694 6.24584 16.4629 4.08551 14.8508 2.49179C13.2387 0.898072 11.0534 0.00195516 8.77381 0H8.58325C6.30776 0.00254575 4.12602 0.897133 2.51704 2.48827C0.907531 4.07886 0.00263702 6.23567 0 8.48515V8.98718C0 9.81457 0.353321 10.6032 0.973431 11.1592C1.59303 11.7152 2.42168 11.9866 3.25459 11.9067C4.75598 11.7641 5.93275 10.4414 5.93275 8.89143V8.52943C5.93326 7.82271 6.21757 7.14504 6.72334 6.64504C7.22911 6.14556 7.91464 5.86399 8.62951 5.86348H8.75055C9.46543 5.86399 10.1509 6.14556 10.6567 6.64504C11.162 7.14503 11.4468 7.82273 11.4473 8.52943V8.61344C11.4473 9.62259 11.0543 10.5926 10.3498 11.3221L7.22502 14.5741C6.21657 15.6194 5.65467 17.0089 5.65718 18.4534V22.572C5.65718 24.1219 6.83251 25.4462 8.33389 25.5873C8.42917 25.5959 8.52291 25.6 8.62231 25.6C9.40982 25.6025 10.1664 25.2945 10.7238 24.7446C11.2816 24.1947 11.5947 23.4478 11.5947 22.6687V19.179C11.5942 18.7727 11.7523 18.3822 12.0356 18.0884L14.6489 15.3696C16.4021 13.5483 17.377 11.1293 17.3713 8.61513L17.3714 8.49936ZM15.9695 8.61494H15.97C15.9736 10.7742 15.1341 12.8522 13.6266 14.4142L11.0133 17.1402C10.4859 17.6911 10.1923 18.4208 10.1928 19.1789V22.6687C10.1913 23.103 10.0053 23.5169 9.68087 23.8092C9.35176 24.1101 8.90779 24.2552 8.46227 24.2073C7.6722 24.133 7.05463 23.4146 7.05463 22.5719V18.4533C7.05309 17.3642 7.47645 16.3163 8.23562 15.5277L11.3547 12.2843H11.3552C12.3086 11.2945 12.8396 9.97986 12.8375 8.61333V8.52932C12.8364 7.45703 12.4059 6.42909 11.64 5.66944C10.8741 4.91029 9.83523 4.48208 8.75062 4.47751H8.6368C7.54903 4.477 6.50503 4.90316 5.73502 5.66334C4.96503 6.423 4.53187 7.45401 4.53085 8.52935V8.89135C4.53085 9.734 3.91228 10.4595 3.12162 10.5268H3.12213C2.68125 10.5721 2.24141 10.43 1.91229 10.1368C1.58318 9.84298 1.39519 9.42497 1.3957 8.98709V8.48506C1.39776 6.60276 2.15539 4.79827 3.50176 3.46733C4.84809 2.13638 6.67344 1.38794 8.5775 1.38534H8.76807C10.6753 1.38941 12.5031 2.13991 13.8521 3.47345C15.201 4.80648 15.9602 6.61397 15.9644 8.4994L15.9695 8.61494Z" fill="#FF4500"/>
</svg>
