<svg width="65" height="65" viewBox="0 0 65 65" fill="none" xmlns="http://www.w3.org/2000/svg">
<path d="M18.1929 19.7904H47.8219C50.3072 19.7904 52.3219 21.8051 52.3219 24.2904V40.518C52.3219 43.0033 50.3072 45.018 47.8219 45.018H33.0074H28.0538C27.3397 45.018 26.6623 45.3339 26.2032 45.8808L22.9347 49.7754C21.8489 51.0691 19.7717 49.934 20.2739 48.3215L20.3642 48.0315C20.8299 46.5362 19.7126 45.018 18.1465 45.018C15.6868 45.018 13.6929 43.0241 13.6929 40.5644V24.2904C13.6929 21.8051 15.7076 19.7904 18.1929 19.7904Z" stroke="white"/>
<line x1="17.7573" y1="25.9033" x2="48.2573" y2="25.9033" stroke="#FF4500" stroke-linecap="round"/>
<line x1="17.7573" y1="29.9678" x2="23.8702" y2="29.9678" stroke="#FF4500" stroke-linecap="round"/>
<line x1="26.9023" y1="29.9678" x2="48.2572" y2="29.9678" stroke="#FF4500" stroke-linecap="round"/>
<line x1="17.7573" y1="34.0323" x2="46.2251" y2="34.0323" stroke="#FF4500" stroke-linecap="round"/>
<line x1="17.7573" y1="38.0969" x2="33.0154" y2="38.0969" stroke="#FF4500" stroke-linecap="round"/>
<line x1="36.0479" y1="38.0969" x2="48.2575" y2="38.0969" stroke="#FF4500" stroke-linecap="round"/>
<path d="M32.5 64C49.897 64 64 49.897 64 32.5C64 15.103 49.897 1 32.5 1C15.103 1 1 15.103 1 32.5C1 35.667 1.46738 38.7249 2.33694 41.6084M12.7651 57.053C9.79459 54.6624 7.26701 51.7438 5.32479 48.4398" stroke="white" stroke-width="1.5" stroke-linecap="round"/>
</svg>
