<svg width="77" height="84" viewBox="0 0 77 84" fill="none" xmlns="http://www.w3.org/2000/svg">
<path d="M4.9502 31.3C4.79047 31.6421 4.69009 31.8757 4.5 32.3C4.00429 33.4797 3.97326 33.6091 3.8 34.1001" stroke="#FF4500" stroke-linecap="round"/>
<path d="M1.97998 43.7C1.97998 43.7 1.92169 45.3834 2.09989 47.5C2.2781 49.6166 2.77604 51.4419 2.77604 51.4419" stroke="#FF4500" stroke-linecap="round"/>
<path d="M6.40034 60.5501L7.14733 61.6706C8.04785 63.0214 9.05652 64.2968 10.1634 65.4844L11.2499 66.6501" stroke="#FF4500" stroke-linecap="round"/>
<path d="M19.1497 72.3999C19.8969 72.732 20.69 73.0732 21.2493 73.3118C21.7495 73.5251 22.2565 73.7202 22.7736 73.8883C23.6738 74.181 25.2082 74.6555 26.5499 74.95" stroke="#FF4500" stroke-linecap="round"/>
<g filter="url(#filter0_d_141_3015)">
<path d="M36.1997 75.4699C36.1997 75.4699 38.4539 75.2114 40.5 74.6999C42.5 74.1999 43 74 43.8496 73.6499" stroke="#FF4500" stroke-linecap="round"/>
</g>
<path d="M11.0003 22.6673C47.0002 -7.00005 83.5 43 52.0001 69" stroke="white" stroke-linecap="round"/>
<path d="M14.5 16.5C14.5 16.5 10.7328 22.412 11.0436 22.8037C11.3544 23.1954 18 20.5 18 20.5" stroke="#FDFDFD" stroke-linecap="round"/>
<path d="M47.6735 42.4556C47.1206 41.8648 46.3429 41.6047 45.2499 41.7053C44.6022 41.7654 44.1722 41.9658 43.8594 42.1119C43.4438 42.3051 43.2699 42.3574 42.8226 42.0624V34.4562C42.8226 33.9039 42.3749 33.4562 41.8226 33.4562H35.1203L34.9854 33.6396C34.2654 34.6175 34.4103 35.1271 34.7151 35.7927C34.8516 36.0913 34.9934 36.401 35.0384 36.8992C35.0544 37.0822 35.058 37.2539 35.0496 37.4142C35.0468 37.458 35.0371 37.4949 35.0323 37.5367C35.0203 37.6495 35.0094 37.7615 34.9849 37.8613C34.9725 37.9092 34.9512 37.9494 34.9364 37.9948C34.9087 38.0792 34.883 38.1644 34.8452 38.2383C34.8207 38.2862 34.7858 38.3243 34.7577 38.3682C34.7167 38.4294 34.679 38.4943 34.63 38.5475C34.6067 38.5723 34.581 38.5926 34.5561 38.6149C34.5163 38.6518 34.477 38.6887 34.4348 38.7196C34.4047 38.7415 34.3742 38.7589 34.3445 38.7784C34.3035 38.8044 34.2622 38.8299 34.2196 38.851C34.1891 38.8669 34.159 38.8803 34.1285 38.8928C34.0839 38.9123 34.0401 38.931 33.9952 38.946C33.9682 38.9557 33.9418 38.9634 33.9153 38.972C33.8651 38.9866 33.8165 39 33.7683 39.0109C33.7502 39.0146 33.7329 39.0186 33.7157 39.0223C33.6559 39.0349 33.6004 39.0434 33.5482 39.0507C33.5446 39.0511 33.5406 39.0519 33.537 39.0519C33.4844 39.0584 33.4386 39.062 33.3969 39.0645C33.3667 39.0669 33.3386 39.0681 33.3145 39.0693H33.3049C33.2503 39.071 33.2138 39.0706 33.2029 39.071C33.2029 39.071 33.1885 39.0714 33.1676 39.0714C33.1636 39.0714 33.1551 39.071 33.1507 39.071C33.131 39.071 33.1057 39.0698 33.072 39.0681C33.06 39.0677 33.0475 39.0665 33.0343 39.0653C33.0026 39.0629 32.9688 39.06 32.9295 39.0551C32.911 39.0527 32.8917 39.0499 32.8713 39.0466C32.8323 39.0413 32.7926 39.034 32.7496 39.0255C32.7255 39.0207 32.7022 39.0154 32.6769 39.0097C32.6343 38.9996 32.5906 38.9878 32.5456 38.974C32.5175 38.9655 32.4906 38.9569 32.4621 38.9472C32.4175 38.9314 32.3733 38.9127 32.3276 38.8932C32.2987 38.8807 32.2702 38.8677 32.2412 38.8539C32.1963 38.8316 32.1529 38.8044 32.1087 38.7764C32.0806 38.7593 32.0529 38.7431 32.0252 38.7232C31.9802 38.6904 31.9377 38.6518 31.8955 38.6124C31.8738 38.5917 31.8505 38.5743 31.8297 38.5512C31.7775 38.4956 31.7381 38.4282 31.6947 38.3633C31.667 38.3215 31.6341 38.285 31.61 38.2395C31.5735 38.1685 31.549 38.0861 31.5217 38.0058C31.5056 37.9567 31.4827 37.9137 31.4695 37.8617C31.4466 37.7696 31.4366 37.6649 31.4249 37.5623C31.4189 37.5116 31.4076 37.4673 31.404 37.4138C31.3952 37.2531 31.3988 37.0818 31.4153 36.8988C31.4602 36.3993 31.6016 36.0905 31.7385 35.7919C32.0433 35.126 32.1886 34.6175 31.4675 33.6385L31.3322 33.4555L22.1604 33.4551C21.6081 33.4551 21.1604 33.9028 21.1604 34.4551V42.5263L21.3419 42.6626C21.462 42.7531 21.5764 42.8306 21.6856 42.8963C21.7049 42.9085 21.7218 42.9138 21.7406 42.9255C21.8302 42.9763 21.9189 43.0242 22.0032 43.0603C22.0145 43.0655 22.0249 43.0668 22.0362 43.0716C22.1257 43.1081 22.2144 43.1366 22.3 43.156C22.3124 43.1589 22.3233 43.1589 22.3353 43.1613C22.4164 43.1763 22.4959 43.1857 22.575 43.1869C22.5823 43.1869 22.5895 43.1893 22.5967 43.1893C22.622 43.1893 22.6445 43.184 22.6694 43.1828C22.7132 43.1804 22.7569 43.1775 22.7991 43.1706C22.8573 43.1609 22.9147 43.1487 22.9717 43.1325C22.9842 43.1288 22.9974 43.1264 23.0095 43.1228C23.1613 43.0773 23.313 43.012 23.4737 42.9361C23.7692 42.7981 24.0752 42.6557 24.5675 42.6103C24.7534 42.5932 24.9245 42.5908 25.0843 42.5993C25.1963 42.6058 25.2955 42.6265 25.3963 42.646C25.4416 42.6545 25.4934 42.6573 25.5372 42.6683C25.6171 42.6894 25.6854 42.7227 25.7572 42.7531C25.8119 42.7754 25.8705 42.7937 25.9203 42.8209C25.9749 42.8517 26.0198 42.8923 26.0688 42.9292C26.1251 42.971 26.1833 43.0091 26.2319 43.0591C26.2668 43.0948 26.2961 43.1325 26.3258 43.1706C26.3499 43.2015 26.376 43.2311 26.3977 43.2628C26.4258 43.3054 26.4487 43.3496 26.4728 43.3938C26.4896 43.4255 26.5089 43.4555 26.5226 43.4863C26.5447 43.5334 26.5611 43.5797 26.5784 43.6267C26.5892 43.656 26.6013 43.6848 26.6109 43.714C26.6258 43.7635 26.6378 43.811 26.6487 43.8588C26.6547 43.8832 26.6619 43.9083 26.6667 43.9323C26.6776 43.983 26.684 44.0297 26.6908 44.0763C26.6932 44.0934 26.6972 44.1129 26.6992 44.1283C26.7057 44.1798 26.7093 44.2245 26.7117 44.2671C26.7121 44.2744 26.7133 44.2841 26.7141 44.2914C26.7165 44.3356 26.7169 44.3726 26.7177 44.401V44.4083V44.418C26.7177 44.4379 26.7173 44.4561 26.7173 44.4618V44.4643C26.7173 44.4643 26.7177 44.4793 26.7177 44.5032C26.7177 44.5085 26.7173 44.519 26.7165 44.5251C26.7165 44.5474 26.7161 44.571 26.7141 44.6051C26.7129 44.6213 26.7105 44.6432 26.7089 44.6627C26.7061 44.6935 26.7041 44.7227 26.6992 44.7585C26.6964 44.7828 26.6904 44.8112 26.6868 44.838C26.6816 44.8749 26.676 44.909 26.6683 44.9488C26.6619 44.9808 26.6515 45.0149 26.643 45.0486C26.6334 45.0867 26.625 45.1233 26.6125 45.1626C26.6005 45.2004 26.5848 45.2373 26.5712 45.2754C26.5567 45.3136 26.5435 45.3505 26.5266 45.3886C26.5085 45.4276 26.4852 45.4657 26.4643 45.5043C26.4447 45.54 26.4266 45.5757 26.4025 45.611C26.3768 45.6499 26.3451 45.6857 26.315 45.723C26.2897 45.7546 26.266 45.7859 26.2363 45.8155C26.1861 45.8674 26.1243 45.9076 26.066 45.9514C26.0186 45.988 25.9749 46.0273 25.9223 46.0573C25.8757 46.0833 25.8199 46.0991 25.7693 46.1211C25.6938 46.1531 25.6211 46.1884 25.536 46.2107C25.5043 46.2193 25.4665 46.2205 25.4328 46.227C25.179 46.2801 24.8943 46.2984 24.5675 46.2688C24.0744 46.2237 23.7688 46.0805 23.4733 45.9429C23.3094 45.8666 23.1556 45.8005 23.0006 45.7546C22.9982 45.7542 22.9958 45.7534 22.993 45.753C22.926 45.7335 22.8577 45.7189 22.789 45.7088C22.7585 45.7039 22.7268 45.7023 22.6951 45.6999C22.6613 45.6974 22.6308 45.6909 22.5963 45.6909C22.5862 45.6909 22.5766 45.6938 22.567 45.6938C22.4979 45.6954 22.4284 45.7039 22.3582 45.7161C22.3365 45.7197 22.316 45.721 22.2939 45.7258C22.2188 45.7421 22.1417 45.7697 22.0638 45.7993C22.0418 45.8078 22.0217 45.8119 21.9992 45.8212C21.9313 45.8504 21.8603 45.8902 21.7888 45.9295C21.7193 45.9677 21.6479 46.0091 21.5736 46.0561C21.4993 46.1032 21.4218 46.1568 21.3415 46.2172L21.16 46.3536L21.1593 54.4239C21.1592 54.9762 21.6069 55.424 22.1593 55.424H30.0978L30.2327 55.2405C30.9523 54.2626 30.8073 53.7534 30.503 53.0883C30.3664 52.7888 30.2255 52.4792 30.1805 51.9805C30.1645 51.7975 30.1609 51.6258 30.1693 51.4656C30.1721 51.4189 30.1829 51.3795 30.1878 51.3345C30.199 51.2253 30.2094 51.1162 30.2339 51.0188C30.2464 50.9656 30.2705 50.9214 30.2865 50.8715C30.3134 50.7928 30.3367 50.7116 30.3737 50.6418C30.4014 50.5878 30.4391 50.5448 30.4725 50.497C30.5102 50.4414 30.5431 50.3825 30.5877 50.3334C30.613 50.3066 30.6403 50.2855 30.6668 50.2612C30.7057 50.2243 30.7455 50.1878 30.7873 50.1569C30.8101 50.1407 30.8326 50.1265 30.8563 50.1119C30.9109 50.0754 30.9659 50.0429 31.0226 50.0145C31.0286 50.0116 31.0338 50.0092 31.0394 50.006C31.4233 49.8246 31.8208 49.8084 31.961 49.8079H31.965H31.9806H32.0132C32.0132 49.8079 32.0288 49.8075 32.0521 49.8075C32.0537 49.8075 32.0581 49.8079 32.0597 49.8079C32.0802 49.8079 32.1083 49.8084 32.1449 49.8104C32.1593 49.8116 32.1762 49.8132 32.1926 49.8144C32.2207 49.8161 32.2489 49.8193 32.2822 49.8234C32.3075 49.8258 32.3336 49.8299 32.3613 49.8343C32.393 49.8392 32.4235 49.8453 32.4573 49.8514C32.4898 49.8575 32.5215 49.8648 32.5556 49.8733C32.5898 49.881 32.6235 49.8907 32.6592 49.9013C32.6954 49.9122 32.7295 49.9232 32.7664 49.9366C32.8038 49.95 32.8395 49.965 32.8773 49.9808C32.9134 49.9958 32.9475 50.0116 32.9833 50.0299C33.023 50.0498 33.0608 50.0741 33.0997 50.0977C33.1322 50.1176 33.164 50.1366 33.1949 50.1602C33.237 50.1906 33.276 50.2267 33.3149 50.2632C33.3402 50.2868 33.3663 50.3071 33.3904 50.333C33.437 50.3838 33.4727 50.4462 33.5121 50.5039C33.5434 50.5497 33.5799 50.5911 33.6056 50.6418C33.6422 50.712 33.6655 50.794 33.6928 50.8727C33.7096 50.9222 33.7325 50.966 33.7454 51.0188C33.7695 51.1158 33.7807 51.2253 33.7916 51.3341C33.7964 51.3795 33.8072 51.4189 33.81 51.4664C33.8189 51.6271 33.8153 51.7983 33.7988 51.9813C33.7542 52.4808 33.6125 52.7896 33.4756 53.0891C33.1716 53.7546 33.0262 54.2634 33.747 55.2422L33.8819 55.4252H41.8189C42.3712 55.4252 42.8189 54.9775 42.8189 54.4252L42.8193 46.8185C43.2686 46.5227 43.4417 46.5751 43.8561 46.7682C44.1693 46.9147 44.5985 47.1148 45.2474 47.1748C46.3343 47.2759 47.1177 47.0153 47.6706 46.4245C48.4324 45.6113 48.3794 44.4655 48.3766 44.4655C48.3814 44.4172 48.4357 43.2692 47.6735 42.4556ZM47.0206 45.7993C46.6637 46.1803 46.1087 46.3422 45.3313 46.2688C44.8382 46.2237 44.5319 46.0805 44.2364 45.9429C43.9714 45.8192 43.6967 45.6909 43.359 45.6909C42.9751 45.6909 42.5884 45.8533 42.1038 46.2168L41.9223 46.3532V53.515C41.9223 54.0673 41.4746 54.515 40.9223 54.515H34.3444C34.3416 54.5102 34.3372 54.5049 34.3344 54.5012C34.3208 54.4801 34.3103 54.4611 34.2971 54.4408C34.2742 54.403 34.2517 54.3661 34.234 54.3324C34.222 54.3105 34.2143 54.291 34.2047 54.2707C34.1915 54.2415 34.179 54.2131 34.1694 54.1859C34.1621 54.1665 34.1573 54.1478 34.1525 54.1283C34.1461 54.1036 34.1405 54.0788 34.1381 54.0549C34.1356 54.0374 34.134 54.0192 34.1332 54.0021C34.1328 53.9778 34.1332 53.9542 34.1356 53.9307C34.1372 53.9145 34.1393 53.8974 34.1421 53.8812C34.1461 53.8556 34.1533 53.8305 34.1605 53.8041C34.1654 53.7883 34.169 53.7733 34.1738 53.757C34.1846 53.7262 34.1971 53.6941 34.2115 53.6609C34.2168 53.6483 34.2212 53.6361 34.2264 53.6227C34.2469 53.5756 34.2698 53.5253 34.2947 53.4701C34.4392 53.1532 34.6376 52.7194 34.697 52.0629C34.7191 51.8133 34.7215 51.5767 34.7066 51.3532C34.7002 51.2647 34.6777 51.1864 34.6657 51.1012C34.6472 50.9734 34.6332 50.8411 34.601 50.7238C34.5777 50.6378 34.538 50.5631 34.5075 50.4832C34.4673 50.3789 34.4332 50.2705 34.381 50.1752C34.3412 50.1026 34.287 50.0413 34.2408 49.9747C34.1846 49.8936 34.1372 49.8063 34.071 49.7329C34.0614 49.7227 34.0513 49.7154 34.0417 49.7049C34.0365 49.6996 34.0333 49.6923 34.0284 49.6874C34.0019 49.6603 33.9726 49.6416 33.9457 49.616C33.8799 49.5531 33.8132 49.4923 33.7437 49.4403C33.7036 49.4099 33.6626 49.3851 33.6225 49.3579C33.5566 49.3149 33.4904 49.2735 33.4241 49.2387C33.3808 49.2163 33.339 49.196 33.2964 49.1762C33.231 49.1453 33.1655 49.1181 33.1009 49.0938C33.0587 49.0788 33.0182 49.0634 32.9772 49.0508C32.9138 49.0301 32.8523 49.0126 32.7909 48.998C32.7532 48.9883 32.7154 48.9781 32.6789 48.97C32.6182 48.9574 32.5636 48.9481 32.509 48.9396C32.4773 48.9347 32.4468 48.9286 32.4179 48.9258C32.3581 48.9181 32.3063 48.9132 32.2573 48.91C32.2424 48.9088 32.2247 48.9071 32.2119 48.9059C32.1476 48.9023 32.0918 48.9006 32.0513 48.9006H31.9344C31.8605 48.9006 31.7377 48.9071 31.5903 48.925C31.5779 48.9266 31.5662 48.9278 31.5526 48.9299C31.471 48.9412 31.3847 48.9546 31.29 48.9749C31.2715 48.979 31.2526 48.9846 31.2341 48.9883C31.1566 49.0065 31.0787 49.0276 30.9968 49.0544C30.9631 49.0654 30.931 49.0776 30.8969 49.0901C30.8262 49.1157 30.7547 49.1457 30.6828 49.1786C30.6431 49.1969 30.6041 49.2163 30.5648 49.2374C30.4957 49.274 30.4283 49.3158 30.3604 49.36C30.3206 49.3868 30.2805 49.4115 30.2415 49.4407C30.1721 49.4935 30.105 49.5548 30.0384 49.6172C30.0115 49.6428 29.9822 49.6615 29.9561 49.6887C29.9508 49.6939 29.9476 49.7012 29.9428 49.7061C29.9332 49.7171 29.9231 49.7236 29.9135 49.7341C29.8476 49.8067 29.8007 49.8948 29.7444 49.9751C29.6979 50.0417 29.6433 50.1038 29.6035 50.1756C29.5513 50.2706 29.5172 50.3793 29.4774 50.484C29.4461 50.5647 29.4067 50.6386 29.3835 50.7238C29.3505 50.8419 29.3373 50.9734 29.3188 51.102C29.3064 51.1868 29.2839 51.2651 29.2779 51.354C29.263 51.5772 29.2654 51.8137 29.2875 52.0637C29.3469 52.7194 29.5453 53.1532 29.6898 53.4697C29.7151 53.5253 29.7376 53.5756 29.7581 53.6231C29.7633 53.6357 29.7677 53.6466 29.7717 53.6588C29.7862 53.6941 29.7999 53.7266 29.8103 53.7586C29.8155 53.7737 29.8191 53.7883 29.8227 53.8029C29.8312 53.8301 29.8376 53.8572 29.8424 53.8836C29.8448 53.8986 29.846 53.9145 29.8476 53.9295C29.8504 53.9542 29.8517 53.9798 29.8504 54.0054C29.85 54.0212 29.848 54.0382 29.8464 54.0536C29.8428 54.0796 29.8376 54.1056 29.8308 54.1324C29.826 54.1494 29.8211 54.1677 29.8151 54.1851C29.8051 54.2135 29.7922 54.2439 29.7778 54.2748C29.7681 54.293 29.7609 54.3117 29.7509 54.3316C29.7324 54.3669 29.7087 54.4055 29.6842 54.4456C29.673 54.4639 29.6633 54.4821 29.6501 54.5012C29.6473 54.5061 29.6429 54.5114 29.64 54.5158L23.0596 54.5144C22.5074 54.5143 22.0598 54.0666 22.0598 53.5144V46.8186C22.5079 46.5236 22.6806 46.5739 23.0966 46.7691C23.4102 46.9151 23.8391 47.1152 24.4871 47.1753C24.6316 47.1878 24.773 47.1951 24.9087 47.1951C25.1175 47.1951 25.3147 47.1781 25.501 47.1473C25.5456 47.1395 25.5845 47.1241 25.6275 47.1144C25.7648 47.0852 25.8997 47.0539 26.0238 47.0073C26.0848 46.985 26.1382 46.9509 26.1965 46.9241C26.2936 46.8786 26.392 46.8344 26.4811 46.7776C26.5406 46.7394 26.592 46.6904 26.6466 46.6465C26.71 46.597 26.7791 46.5544 26.8373 46.4976C26.8522 46.483 26.8618 46.4668 26.8759 46.4522C26.8867 46.4412 26.8987 46.4351 26.9088 46.4242C26.9485 46.3816 26.9778 46.3349 27.0136 46.2902C27.0549 46.2387 27.0987 46.1892 27.1348 46.1365C27.1734 46.0788 27.2043 46.0212 27.2372 45.9624C27.2686 45.908 27.3007 45.8544 27.3268 45.7992C27.3537 45.7428 27.3734 45.6877 27.3958 45.6321C27.4179 45.5765 27.4424 45.5201 27.4601 45.4653C27.477 45.4138 27.4882 45.3659 27.5015 45.3164C27.5163 45.26 27.534 45.2036 27.5452 45.1508C27.5541 45.1094 27.5585 45.0737 27.5657 45.0356C27.5753 44.98 27.5862 44.924 27.5922 44.8749C27.5958 44.8489 27.597 44.8298 27.5994 44.8063C27.6046 44.7523 27.6107 44.6992 27.6127 44.6574C27.6127 44.6533 27.6127 44.6521 27.6131 44.6484C27.6155 44.592 27.6167 44.5466 27.6159 44.5145C27.6159 44.4825 27.6147 44.465 27.6147 44.465C27.6151 44.4541 27.6171 44.3863 27.6135 44.2893C27.6131 44.2723 27.6135 44.2621 27.6123 44.2435C27.6107 44.2069 27.605 44.1623 27.601 44.1193C27.5982 44.084 27.5962 44.0544 27.5914 44.0158C27.5862 43.974 27.5769 43.9261 27.5693 43.8799C27.5617 43.8308 27.5557 43.7853 27.544 43.7326C27.534 43.6867 27.5187 43.6376 27.5063 43.5897C27.4918 43.5317 27.4774 43.4753 27.4585 43.4153C27.4428 43.3662 27.4207 43.3167 27.4011 43.2663C27.377 43.2034 27.3545 43.1422 27.3244 43.0785C27.3011 43.0281 27.2706 42.979 27.2421 42.9295C27.2067 42.8666 27.1738 42.8042 27.1312 42.7425C27.0975 42.693 27.057 42.6467 27.0184 42.5984C26.9807 42.5518 26.9505 42.5027 26.9076 42.4572C26.8975 42.4463 26.8847 42.441 26.8747 42.43C26.8602 42.4154 26.8506 42.3984 26.8357 42.3842C26.7823 42.3322 26.7169 42.2969 26.6586 42.2507C26.5727 42.1809 26.4896 42.1082 26.3948 42.0514C26.3482 42.0242 26.294 42.0072 26.245 41.9828C26.1141 41.9167 25.9812 41.853 25.8327 41.8108C25.8146 41.8055 25.7929 41.8043 25.7744 41.7994C25.5933 41.7511 25.4038 41.7146 25.1998 41.6996C24.9766 41.6838 24.7405 41.6838 24.4843 41.7073C23.8366 41.7674 23.4077 41.9678 23.0949 42.1139C22.6781 42.3071 22.5063 42.3594 22.0582 42.0644L22.0578 35.3652C22.0578 34.8129 22.5055 34.3651 23.0578 34.3651H30.8727C30.8755 34.3692 30.88 34.3753 30.8828 34.3789C30.896 34.3996 30.9069 34.4179 30.9193 34.4382C30.9426 34.4763 30.9655 34.5145 30.9836 34.549C30.9944 34.5688 31.002 34.5871 31.0113 34.6066C31.0249 34.6374 31.039 34.6679 31.049 34.6959C31.055 34.7133 31.0599 34.7316 31.0639 34.7486C31.0711 34.7754 31.0763 34.8014 31.0795 34.8269C31.0819 34.8432 31.0831 34.8602 31.0835 34.876C31.0848 34.9016 31.0835 34.9263 31.0811 34.9519C31.0795 34.9665 31.0783 34.9823 31.0751 34.9978C31.0703 35.0245 31.0631 35.0517 31.0554 35.0797C31.0514 35.0935 31.0482 35.1077 31.043 35.1215C31.0317 35.1544 31.0185 35.1877 31.0044 35.2226C30.9992 35.2347 30.9956 35.2457 30.99 35.2583C30.9695 35.3053 30.9466 35.3557 30.9217 35.4108C30.7768 35.7274 30.578 36.1611 30.5186 36.8173C30.4965 37.0676 30.4941 37.305 30.5097 37.5286C30.5158 37.6061 30.5354 37.6735 30.5459 37.7473C30.5652 37.8873 30.5812 38.0298 30.6162 38.158C30.639 38.2404 30.6772 38.3114 30.7065 38.3889C30.7467 38.4968 30.7828 38.6076 30.8366 38.7058C30.8751 38.7772 30.9294 38.8381 30.9755 38.9046C31.0317 38.9858 31.0791 39.0738 31.1458 39.1477C31.1554 39.1586 31.1655 39.1651 31.1751 39.1757C31.1803 39.181 31.1835 39.1883 31.1883 39.1931C31.214 39.2203 31.2434 39.239 31.2707 39.2646C31.3373 39.3274 31.404 39.3883 31.4738 39.4411C31.5128 39.4707 31.5537 39.4954 31.5939 39.5222C31.6598 39.5652 31.7264 39.607 31.7935 39.6427C31.836 39.6651 31.8782 39.6853 31.92 39.7052C31.9858 39.7357 32.0509 39.7629 32.1155 39.7872C32.1581 39.803 32.2002 39.818 32.2416 39.8314C32.3038 39.8509 32.3621 39.868 32.4215 39.8822C32.4628 39.8923 32.503 39.9033 32.5427 39.9118C32.5953 39.9227 32.6439 39.9304 32.6925 39.9386C32.7315 39.945 32.7712 39.9519 32.8066 39.956C32.8487 39.9613 32.8832 39.9645 32.9206 39.9674C32.9531 39.9702 32.986 39.9739 33.0129 39.9759C33.0748 39.9795 33.1262 39.9808 33.1659 39.9808H33.2828C33.3033 39.9808 33.335 39.9791 33.3619 39.9783C33.3816 39.9779 33.3972 39.9779 33.4205 39.9767C33.4542 39.9751 33.4956 39.9706 33.5349 39.967C33.5627 39.9645 33.5863 39.9633 33.6173 39.9597C33.6558 39.9548 33.702 39.9471 33.7446 39.9402C33.7823 39.9341 33.8164 39.93 33.8566 39.9227C33.8987 39.915 33.9441 39.902 33.9891 39.8911C34.0353 39.8801 34.0794 39.8712 34.128 39.857C34.1702 39.8444 34.2144 39.8274 34.2577 39.8128C34.3115 39.7953 34.3637 39.7783 34.4191 39.7564C34.4613 39.7393 34.5039 39.7162 34.5464 39.6959C34.6034 39.6691 34.6593 39.6444 34.7163 39.6123C34.7584 39.5888 34.799 39.5592 34.8399 39.5316C34.897 39.495 34.9528 39.4614 35.0078 39.4184C35.0491 39.3863 35.0881 39.3469 35.1278 39.3112C35.1724 39.2719 35.2182 39.2366 35.2616 39.1923C35.2676 39.1863 35.2704 39.1789 35.276 39.1725C35.2848 39.1627 35.2953 39.1566 35.3041 39.1465C35.3676 39.0755 35.4137 38.9903 35.4684 38.9119C35.5169 38.843 35.5732 38.7784 35.6141 38.7042C35.6667 38.6072 35.7017 38.4976 35.7426 38.3913C35.7727 38.3126 35.8117 38.24 35.8342 38.1564C35.8695 38.029 35.8852 37.8878 35.9036 37.749C35.9145 37.6731 35.9341 37.6049 35.9402 37.5258C35.9558 37.3022 35.9534 37.0652 35.9313 36.8145C35.8715 36.1595 35.6735 35.7254 35.5282 35.4085C35.5029 35.3533 35.4804 35.3029 35.4599 35.2559C35.4539 35.2433 35.4499 35.2303 35.4451 35.2177C35.4314 35.1845 35.4182 35.1524 35.4073 35.1216C35.4021 35.1053 35.3985 35.0899 35.3941 35.0749C35.3864 35.0481 35.3796 35.023 35.3756 34.9974C35.3728 34.9812 35.3708 34.9641 35.3692 34.9479C35.3668 34.9243 35.3664 34.9 35.3668 34.8765C35.3672 34.8594 35.3692 34.8412 35.3716 34.8237C35.3744 34.8002 35.38 34.7754 35.386 34.7499C35.3909 34.7312 35.3961 34.7121 35.4029 34.6931C35.4125 34.6663 35.4246 34.6379 35.4378 34.6087C35.4479 34.588 35.4559 34.5681 35.468 34.5458C35.4848 34.5129 35.5065 34.478 35.529 34.4415C35.5414 34.4196 35.5535 34.3997 35.5687 34.3761C35.5711 34.3725 35.5748 34.3676 35.5776 34.3636H40.9211C41.4734 34.3636 41.9211 34.8113 41.9211 35.3636V42.5258L42.1026 42.6626C42.5872 43.0261 42.9739 43.1872 43.3578 43.1872C43.6955 43.1872 43.9701 43.0594 44.2352 42.9353C44.5315 42.7973 44.8371 42.6549 45.3301 42.6094C46.1043 42.5368 46.6584 42.6975 47.0146 43.074C47.5109 43.5987 47.4804 44.407 47.48 44.4643C47.4816 44.4728 47.5109 45.2758 47.0206 45.7993Z" fill="white"/>
<defs>
<filter id="filter0_d_141_3015" x="31.6997" y="73.1498" width="16.6499" height="10.8202" filterUnits="userSpaceOnUse" color-interpolation-filters="sRGB">
<feFlood flood-opacity="0" result="BackgroundImageFix"/>
<feColorMatrix in="SourceAlpha" type="matrix" values="0 0 0 0 0 0 0 0 0 0 0 0 0 0 0 0 0 0 127 0" result="hardAlpha"/>
<feOffset dy="4"/>
<feGaussianBlur stdDeviation="2"/>
<feComposite in2="hardAlpha" operator="out"/>
<feColorMatrix type="matrix" values="0 0 0 0 0 0 0 0 0 0 0 0 0 0 0 0 0 0 0.25 0"/>
<feBlend mode="normal" in2="BackgroundImageFix" result="effect1_dropShadow_141_3015"/>
<feBlend mode="normal" in="SourceGraphic" in2="effect1_dropShadow_141_3015" result="shape"/>
</filter>
</defs>
</svg>
