<svg width="82" height="80" viewBox="0 0 82 80" fill="none" xmlns="http://www.w3.org/2000/svg">
<path d="M68.3986 46.4C67.4371 46.4011 66.5154 46.8223 65.8357 47.5706C65.1555 48.3195 64.7735 49.3345 64.772 50.3931V68.0074C64.7735 69.066 65.1555 70.0809 65.8357 70.8293C66.5153 71.5776 67.4371 71.9988 68.3986 72H68.4586C69.4201 71.9988 70.3419 71.5776 71.022 70.8293C71.7022 70.081 72.0847 69.066 72.0863 68.0074V50.3874C72.0802 49.3193 71.6874 48.2982 70.9951 47.5498C70.3032 46.8015 69.3688 46.3881 68.3986 46.4005L68.3986 46.4ZM70.7021 68.0134C70.7011 68.6676 70.464 69.2955 70.0438 69.7582C69.6231 70.2208 69.0528 70.4813 68.4587 70.4818H68.3986C67.8045 70.479 67.2357 70.2169 66.817 69.7531C66.3978 69.2888 66.1633 68.6614 66.1638 68.0072V50.3872C66.2218 49.5375 66.6669 48.7785 67.3466 48.3713C68.0262 47.9641 68.8468 47.9641 69.5263 48.3713C70.2055 48.7785 70.6511 49.5375 70.7091 50.3872L70.7021 68.0134Z M68.4293 44.5713C69.6419 44.5713 70.8046 44.0897 71.6619 43.2325C72.5191 42.3748 73.0008 41.2122 73.0008 40.0001C73.0008 38.7876 72.5191 37.625 71.6619 36.7672C70.8047 35.9101 69.642 35.4284 68.4293 35.4284C67.2167 35.4284 66.054 35.9101 65.1968 36.7672C64.3396 37.6249 63.8579 38.7876 63.8579 40.0001C63.8595 41.2116 64.3417 42.3737 65.1983 43.2304C66.0555 44.0875 67.2172 44.5697 68.4293 44.5712L68.4293 44.5713ZM68.4293 36.8724C69.259 36.8724 70.0547 37.2018 70.6413 37.7884C71.228 38.375 71.5574 39.1707 71.5574 40.0002C71.5574 40.8298 71.228 41.6249 70.6413 42.2115C70.0546 42.7981 69.2589 43.1275 68.4293 43.1275C67.5998 43.1275 66.804 42.7981 66.2174 42.2115C65.6307 41.6248 65.3013 40.8297 65.3013 40.0002C65.3024 39.1706 65.6323 38.3761 66.219 37.7895C66.8051 37.2034 67.6003 36.8734 68.4293 36.8724L68.4293 36.8724Z" fill="white"/>
<path d="M32.2528 54.4771H53.752C54.1409 54.4771 54.4559 54.1604 54.4559 53.7693C54.4559 53.3787 54.1409 53.0615 53.752 53.0615H32.9559V48.9332C32.9565 48.9244 32.9565 48.915 32.9559 48.9056C32.9559 48.8802 32.9534 48.8552 32.9487 48.8302C32.9461 48.8089 32.9425 48.7881 32.9373 48.7673C32.9321 48.7444 32.9249 48.7215 32.9166 48.6992C32.9094 48.6773 32.9006 48.6555 32.8918 48.6352C32.883 48.6149 32.8716 48.5957 32.8597 48.577C32.8484 48.5582 32.8339 48.5348 32.8194 48.5145C32.8049 48.4943 32.8106 48.4984 32.8049 48.4911L32.779 48.4651L32.7268 48.4111C32.7108 48.3965 32.6937 48.3835 32.6761 48.3705L32.6182 48.3299L32.5587 48.2977L32.5592 48.2972C32.539 48.2868 32.5183 48.2779 32.4966 48.2706C32.4749 48.2628 32.4527 48.2561 32.4304 48.2504C32.4092 48.2446 32.388 48.24 32.3663 48.2374C32.3409 48.2332 32.3156 48.2301 32.2897 48.2285H32.2302C32.2033 48.229 32.1759 48.2311 32.149 48.2358L32.0911 48.2462C32.0673 48.2524 32.0435 48.2602 32.0202 48.2696L31.9592 48.293L31.9597 48.2925C31.939 48.3029 31.9194 48.3138 31.9002 48.3263C31.879 48.3377 31.8583 48.3507 31.8392 48.3653L31.8159 48.3799L19.0621 58.6458H19.0626C18.896 58.7805 18.7993 58.9834 18.7993 59.1981C18.7993 59.4124 18.896 59.6157 19.0626 59.7499L31.8191 70.0159C31.8274 70.0226 31.8362 70.0284 31.8449 70.033C31.8594 70.0445 31.8744 70.0544 31.8899 70.0637C31.9122 70.0772 31.9349 70.0897 31.9582 70.1001L32.0048 70.122H32.0043C32.0311 70.1319 32.058 70.1402 32.0855 70.1469L32.1289 70.1584C32.1713 70.1667 32.2148 70.1709 32.2577 70.1714C32.3017 70.1709 32.3456 70.1662 32.3881 70.1568H32.3984C32.4372 70.148 32.4755 70.1355 32.5127 70.1204L32.5329 70.1116V70.1121C32.5691 70.096 32.6043 70.0767 32.6374 70.0549L32.6534 70.0434C32.687 70.0206 32.7186 69.9946 32.7475 69.9665C32.7636 69.9488 32.7806 69.9316 32.7967 69.9113C32.8127 69.8911 32.8055 69.8952 32.8112 69.8879L32.8515 69.8266L32.8836 69.7668C32.8924 69.7465 32.9012 69.7262 32.9084 69.7044C32.9162 69.682 32.9229 69.6591 32.9286 69.6357C32.9338 69.6149 32.9374 69.5941 32.94 69.5733C32.9446 69.5478 32.9472 69.5218 32.9472 69.4958C32.9482 69.487 32.9482 69.4787 32.9472 69.4698V65.3296H53.7525C54.1415 65.3296 54.4565 65.0128 54.4565 64.6223C54.4565 64.2312 54.1415 63.9145 53.7525 63.9145H32.2533C31.8649 63.915 31.5504 64.2317 31.5494 64.6223V67.9902L20.6261 59.1981L31.5478 50.3996V53.7676C31.5478 53.9558 31.6223 54.1363 31.7547 54.2694C31.8871 54.402 32.0661 54.4769 32.2533 54.4769L32.2528 54.4771Z" fill="#FF4500"/>
<path d="M55.0734 31.058H34.3601C33.9874 31.058 33.6855 31.2961 33.6855 31.5897C33.6855 31.8837 33.9874 32.1218 34.3601 32.1218H54.3996V36.7305V36.75V36.7504C54.3982 36.7696 54.3982 36.7891 54.3996 36.8083C54.4021 36.8243 54.4056 36.84 54.411 36.8552C54.411 36.8728 54.4234 36.8892 54.4304 36.9068C54.4373 36.9244 54.4457 36.9385 54.4542 36.9537L54.4849 36.9987H54.4844C54.4963 37.0147 54.5092 37.03 54.5231 37.0448C54.528 37.0511 54.533 37.0573 54.5384 37.0632C54.5528 37.0781 54.5687 37.0913 54.5855 37.1039C54.6133 37.1257 54.6435 37.1453 54.6757 37.1629L54.6926 37.1715V37.1719C54.7238 37.1883 54.7565 37.2028 54.7912 37.2145L54.8105 37.22C54.8462 37.2317 54.8834 37.2407 54.9216 37.2473H54.9355C54.9771 37.2532 55.0192 37.2567 55.0618 37.2571C55.1035 37.2567 55.1456 37.2532 55.1868 37.2473L55.2284 37.2387C55.2532 37.2333 55.2799 37.2278 55.3047 37.22L55.3503 37.2047C55.3711 37.1961 55.3934 37.1871 55.4143 37.1762C55.4296 37.1695 55.444 37.1617 55.4574 37.1531C55.4663 37.1492 55.4752 37.1449 55.4836 37.1398L72.7456 26.2395V26.2399C72.9062 26.139 72.9998 25.9861 72.9998 25.8243C72.9998 25.6624 72.9062 25.5096 72.7456 25.4091L55.4963 14.5137L55.474 14.5028C55.4547 14.4918 55.4339 14.4821 55.4131 14.4723L55.359 14.4492C55.3382 14.4414 55.3169 14.4348 55.2951 14.4297L55.2341 14.4144V14.414C55.2133 14.4101 55.192 14.4074 55.1702 14.4054C55.1474 14.4019 55.1241 14.4 55.1008 14.4H55.0383L54.969 14.4054L54.9065 14.4164L54.8426 14.4316C54.8222 14.4375 54.8024 14.4438 54.7831 14.4516C54.7633 14.4586 54.7444 14.4672 54.7261 14.4766C54.7072 14.4852 54.6894 14.4946 54.6721 14.5051C54.6542 14.5149 54.6379 14.5259 54.622 14.538C54.6046 14.5501 54.5883 14.563 54.5734 14.5775C54.5576 14.5876 54.5437 14.6001 54.5333 14.6146C54.5194 14.6298 54.507 14.6451 54.4946 14.6615C54.4822 14.6779 54.4738 14.6901 54.4639 14.7053C54.454 14.7206 54.4485 14.737 54.4401 14.7534C54.4317 14.7698 54.4262 14.7874 54.4208 14.805C54.4158 14.8206 54.4118 14.8363 54.4099 14.8519C54.4084 14.8711 54.4084 14.8902 54.4099 14.909V14.9297V19.5384H34.3615C33.9887 19.5384 33.6869 19.7765 33.6869 20.0705C33.6869 20.3645 33.9887 20.6026 34.3615 20.6026H55.0747C55.447 20.6018 55.7483 20.3641 55.7493 20.0705V16.0365L71.2589 25.834L55.7493 35.6229V31.5897C55.7483 31.2961 55.447 31.0584 55.0747 31.058L55.0734 31.058Z" fill="white"/>
<path d="M17.6858 34.5144C16.8369 34.5144 16.0234 34.8515 15.4232 35.4516C14.823 36.0518 14.4858 36.8658 14.4858 37.7141C14.4858 38.563 14.823 39.377 15.4232 39.9771C16.0234 40.5772 16.8369 40.9144 17.6858 40.9144C18.5348 40.9144 19.3483 40.5773 19.9485 39.9771C20.5487 39.3769 20.8858 38.563 20.8858 37.7141C20.8853 36.8657 20.5477 36.0523 19.948 35.4527C19.3478 34.8525 18.5343 34.5154 17.6859 34.5144L17.6858 34.5144ZM17.6858 39.5142C16.9571 39.5142 16.2999 39.0754 16.0214 38.4017C15.7428 37.7286 15.897 36.9536 16.4125 36.4388C16.9279 35.9234 17.7034 35.7697 18.3761 36.0493C19.0493 36.3283 19.4881 36.9855 19.4876 37.7141C19.4866 38.7084 18.6803 39.5142 17.686 39.5142L17.6858 39.5142Z M26.3714 16.4994C26.3694 14.2458 25.4629 12.0855 23.8508 10.4918C22.2387 8.89807 20.0534 8.00196 17.7738 8H17.5832C15.3078 8.00255 13.126 8.89713 11.517 10.4883C9.90753 12.0789 9.00264 14.2357 9 16.4852V16.9872C9 17.8146 9.35332 18.6032 9.97343 19.1592C10.593 19.7152 11.4217 19.9866 12.2546 19.9067C13.756 19.7641 14.9327 18.4414 14.9327 16.8914V16.5294C14.9333 15.8227 15.2176 15.145 15.7233 14.645C16.2291 14.1456 16.9146 13.864 17.6295 13.8635H17.7505C18.4654 13.864 19.1509 14.1456 19.6567 14.645C20.162 15.145 20.4468 15.8227 20.4473 16.5294V16.6134C20.4473 17.6226 20.0543 18.5926 19.3498 19.3221L16.225 22.5741C15.2166 23.6194 14.6547 25.0089 14.6572 26.4534V30.572C14.6572 32.1219 15.8325 33.4462 17.3339 33.5873C17.4292 33.5959 17.5229 33.6 17.6223 33.6C18.4098 33.6025 19.1664 33.2945 19.7238 32.7446C20.2816 32.1947 20.5947 31.4478 20.5947 30.6687V27.179C20.5942 26.7727 20.7523 26.3822 21.0356 26.0884L23.6489 23.3696C25.4021 21.5483 26.377 19.1293 26.3713 16.6151L26.3714 16.4994ZM24.9695 16.6149H24.97C24.9736 18.7742 24.1341 20.8522 22.6266 22.4142L20.0133 25.1402C19.4859 25.6911 19.1923 26.4208 19.1928 27.1789V30.6687C19.1913 31.103 19.0053 31.5169 18.6809 31.8092C18.3518 32.1101 17.9078 32.2552 17.4623 32.2073C16.6722 32.133 16.0546 31.4146 16.0546 30.5719V26.4533C16.0531 25.3642 16.4765 24.3163 17.2356 23.5277L20.3547 20.2843H20.3552C21.3086 19.2945 21.8396 17.9799 21.8375 16.6133V16.5293C21.8364 15.457 21.4059 14.4291 20.64 13.6694C19.8741 12.9103 18.8352 12.4821 17.7506 12.4775H17.6368C16.549 12.477 15.505 12.9032 14.735 13.6633C13.965 14.423 13.5319 15.454 13.5308 16.5293V16.8914C13.5308 17.734 12.9123 18.4595 12.1216 18.5268H12.1221C11.6813 18.5721 11.2414 18.43 10.9123 18.1368C10.5832 17.843 10.3952 17.425 10.3957 16.9871V16.4851C10.3978 14.6028 11.1554 12.7983 12.5018 11.4673C13.8481 10.1364 15.6734 9.38794 17.5775 9.38534H17.7681C19.6753 9.38941 21.5031 10.1399 22.8521 11.4735C24.201 12.8065 24.9602 14.614 24.9644 16.4994L24.9695 16.6149Z" fill="#FF4500"/>
</svg>
