<svg width="48" height="56" viewBox="0 0 48 56" fill="none" xmlns="http://www.w3.org/2000/svg">
<path d="M1.44162 33.0775C10.6812 29.5597 19.441 24.8929 27.5158 19.1871C33.9089 14.6486 39.833 9.48369 45.2014 3.76923V9.6923C45.2014 10.287 45.6836 10.7692 46.2783 10.7692C46.873 10.7692 47.3552 10.287 47.3552 9.6923V1.07692L47.3494 1.04807C47.3283 0.469231 46.8576 0.00865231 46.2783 0H37.6632C37.0685 0 36.5863 0.482215 36.5863 1.07692C36.5863 1.67163 37.0685 2.15385 37.6632 2.15385H43.7674C38.4627 7.81871 32.6013 12.936 26.2726 17.4289C18.3459 23.0299 9.74633 27.6111 0.675863 31.0658C0.131167 31.2841 -0.138055 31.899 0.0705907 32.448C0.279236 32.9965 0.889307 33.2773 1.44174 33.0783L1.44162 33.0775Z" fill="#FF4500"/>
<rect x="1.43604" y="43.0769" width="7.89744" height="12.9231" rx="3.94872" fill="#FF4500"/>
<rect x="13.6406" y="33.0256" width="7.89744" height="22.9744" rx="3.94872" fill="#FF4500"/>
<rect x="26.563" y="25.1282" width="7.89744" height="30.8718" rx="3.94872" fill="#FF4500"/>
<rect x="39.4858" y="14.359" width="7.89744" height="41.641" rx="3.94872" fill="#FF4500"/>
</svg>
