<svg width="70" height="70" viewBox="0 0 70 70" fill="none" xmlns="http://www.w3.org/2000/svg">
<path d="M4 49C26.9636 59.6492 39.6501 59.6841 62 49" stroke="white"/>
<path d="M21 46C30.5022 49.9935 35.7518 50.0065 45 46" stroke="#FF4500"/>
<path d="M32.9998 22.96C36.3892 22.96 39.1171 25.8484 39.1171 29.4372C39.1171 33.0259 36.3892 35.9143 32.9998 35.9143C29.6104 35.9143 26.8825 33.0259 26.8825 29.4372C26.8825 25.8484 29.6935 22.96 32.9998 22.96ZM32.9998 22.0845C29.197 22.0845 26.0562 25.4107 26.0562 29.4366C26.0562 33.4632 29.1975 36.7887 32.9998 36.7887C36.8027 36.7887 39.9435 33.4625 39.9435 29.4366C39.9435 25.3235 36.885 22.0845 32.9998 22.0845Z" fill="white"/>
<path d="M32.9999 39.2981C39.3309 39.2981 44.7441 42.2738 44.7441 45.7752C44.7441 49.276 39.4225 52.2524 32.9999 52.2524C26.5772 52.2524 21.2556 49.2766 21.2556 45.7752C21.2556 42.2738 26.6688 39.2981 32.9999 39.2981ZM32.9999 38.4225C26.0269 38.4225 20.3379 41.7487 20.3379 45.7747C20.3379 49.8012 26.0264 53.1268 32.9999 53.1268C39.9729 53.1268 45.6618 49.8006 45.6618 45.7747C45.6618 41.6609 39.9727 38.4225 32.9999 38.4225Z" fill="white"/>
<path d="M52.0142 20.7922C54.7456 20.7922 56.8793 22.8526 56.8793 25.3098C56.8793 27.7665 54.6604 29.8274 52.0142 29.8274C49.3686 29.8274 47.1491 27.767 47.1491 25.3098C47.1491 22.8532 49.2828 20.7922 52.0142 20.7922ZM52.0142 20C48.8565 20 46.2959 22.3777 46.2959 25.3099C46.2959 28.242 48.8565 30.6197 52.0142 30.6197C55.1719 30.6197 57.7325 28.242 57.7325 25.3099C57.7325 22.3777 55.1719 20 52.0142 20Z" fill="white"/>
<path d="M52.0142 33.0462C56.4251 33.0462 60.183 35.1066 60.183 37.5638C60.183 40.0204 56.4251 42.0814 52.0142 42.0814C47.6034 42.0814 43.8455 40.021 43.8455 37.5638C43.8455 35.1066 47.6028 33.0462 52.0142 33.0462ZM52.0142 32.2534C47.0313 32.2534 43.0283 34.6311 43.0283 37.5633C43.0283 40.4954 47.0312 42.8731 52.0142 42.8731C56.9972 42.8731 61.0002 40.4954 61.0002 37.5633C60.9996 34.6311 56.9973 32.2534 52.0142 32.2534Z" fill="white"/>
<path d="M13.9849 20.7922C16.7158 20.7922 18.8491 22.8526 18.8491 25.3098C18.8491 27.7665 16.6306 29.8274 13.9849 29.8274C11.3397 29.8274 9.1206 27.767 9.1206 25.3098C9.1212 22.8532 11.3396 20.7922 13.9849 20.7922ZM13.9849 20C10.8277 20 8.26758 22.3777 8.26758 25.3099C8.26758 28.242 10.8277 30.6197 13.9849 30.6197C17.142 30.6197 19.7022 28.242 19.7022 25.3099C19.7879 22.3777 17.142 20 13.9849 20Z" fill="white"/>
<path d="M13.9859 33.0462C18.3967 33.0462 22.1547 35.1066 22.1547 37.5638C22.1547 40.0204 18.3967 42.0814 13.9859 42.0814C9.57508 42.0814 5.81717 40.021 5.81717 37.5638C5.81717 35.1066 9.57508 33.0462 13.9859 33.0462ZM13.9859 32.2534C9.00298 32.2534 5 34.6311 5 37.5633C5 40.4954 9.00283 42.8731 13.9859 42.8731C18.9689 42.8731 22.9718 40.4954 22.9718 37.5633C22.9718 34.6311 18.969 32.2534 13.9859 32.2534Z" fill="white"/>
</svg>
