<svg width="86" height="86" viewBox="0 0 86 86" fill="none" xmlns="http://www.w3.org/2000/svg">
<path d="M40.8214 42.9603C43.8978 40.5632 45.7342 36.937 45.8603 33.0117C45.8708 32.6904 45.6189 32.4191 45.2984 32.4056C44.9774 32.3925 44.7092 32.6413 44.6991 32.9623C44.5842 36.5442 42.9085 39.8522 40.1022 42.0389C34.8718 46.1144 27.2617 45.1331 23.1381 39.8505C19.0148 34.5683 19.9157 26.9545 25.1461 22.879C30.3786 18.8019 37.9904 19.7819 42.1139 25.0645C42.4271 25.4657 42.7173 25.8888 42.9771 26.3227C43.1431 26.5996 43.5 26.6921 43.7747 26.5286C44.0494 26.3652 44.1376 26.0083 43.9719 25.7318C43.6872 25.2565 43.3694 24.7929 43.0264 24.3536C38.5066 18.5633 30.1625 17.4883 24.4269 21.9576C18.6929 26.4255 17.7055 34.7707 22.2257 40.5615C26.7459 46.3522 35.0879 47.428 40.8215 42.9604L40.8214 42.9603Z" fill="white"/>
<path d="M46.1223 52.7197L50.6721 49.1745C50.8795 49.0129 50.8867 48.6753 50.6883 48.4211L46.3723 42.892C46.2636 42.7527 46.1094 42.661 45.9531 42.6425C45.7967 42.624 45.6548 42.6806 45.5659 42.7958C44.9877 43.5553 44.3239 44.2284 43.594 44.7971C42.8662 45.3642 42.0519 45.8422 41.174 46.2179C41.0409 46.2751 40.9508 46.3993 40.9309 46.5558C40.9111 46.7122 40.9623 46.8835 41.071 47.0228L45.3869 52.5519C45.5854 52.8062 45.9148 52.8814 46.1222 52.7198L46.1223 52.7197ZM49.5773 48.546L45.7789 51.5058L42.2582 46.9955C43.7328 46.2776 45.003 45.2865 46.0567 44.0358L49.5773 48.546Z" fill="white"/>
<path d="M60.416 70.1336L64.2528 67.1434C65.0522 66.5204 64.9719 65.0776 64.0738 63.9267L52.7434 49.4088C51.8417 48.2533 50.4576 47.8199 49.6583 48.4429L45.8215 51.4331C45.0221 52.0561 45.1053 53.5033 46.0071 54.6588L51.4807 61.6722C51.6788 61.9261 51.9829 62.0207 52.1593 61.8832C52.3357 61.7457 52.318 61.4279 52.1199 61.1741L46.6463 54.1606C46.1405 53.5124 46.0924 52.7016 46.5392 52.3534L50.376 49.3631C50.8229 49.0149 51.5981 49.259 52.1039 49.9072L63.4343 64.4251C63.9365 65.0687 63.9813 65.8753 63.5345 66.2235L59.6977 69.2138C59.2509 69.562 58.4786 69.3217 57.9767 68.6786L56.6073 66.924C56.4092 66.6701 56.1051 66.5756 55.9287 66.713C55.7523 66.8505 55.7699 67.1683 55.9681 67.4222L57.3374 69.1767C58.2359 70.3274 59.6167 70.7566 60.416 70.1336Z" fill="white"/>
<path d="M27.2787 32.1589L48.7973 15.3795C49.061 15.1739 49.0998 14.7822 48.8839 14.5054C48.668 14.2286 48.2786 14.1708 48.0149 14.3765L26.4963 31.1559C26.2326 31.3615 26.1938 31.7532 26.4097 32.03C26.626 32.3072 27.015 32.3646 27.2787 32.1589Z" fill="#FF4500"/>
<path d="M48.7982 15.3804C48.9262 15.2807 49.0123 15.1272 49.0229 14.9477C49.0435 14.6058 48.7849 14.2986 48.4454 14.2615L44.987 13.8834C44.6475 13.8464 44.3556 14.0936 44.3349 14.4355C44.3142 14.7773 44.5729 15.0845 44.9124 15.1216L48.3708 15.4997C48.5324 15.5172 48.6824 15.4707 48.7982 15.3804L48.7982 15.3804Z" fill="#FF4500"/>
<path d="M48.3166 18.8184C48.4325 18.7281 48.5143 18.5934 48.5366 18.4333L49.012 14.99C49.0587 14.652 48.8235 14.3265 48.4866 14.2633C48.1497 14.2 47.8386 14.4227 47.7919 14.7607L47.3165 18.204C47.2698 18.542 47.505 18.8674 47.8419 18.9307C48.0188 18.9634 48.1886 18.9181 48.3166 18.8184L48.3166 18.8184Z" fill="#FF4500"/>
<path d="M30.903 36.8059L57.3172 16.2086C57.5809 16.003 57.6197 15.6113 57.4038 15.3346C57.188 15.0578 56.7986 15.0001 56.5349 15.2057L30.1208 35.803C29.8571 36.0087 29.8182 36.4003 30.0341 36.6771C30.25 36.9538 30.6393 37.0116 30.903 36.8059Z" fill="#FF4500"/>
<path d="M57.3202 16.2089C57.4482 16.1092 57.5343 15.9557 57.5448 15.7762C57.5655 15.4343 57.3069 15.1271 56.9674 15.09L53.5085 14.7123C53.1691 14.6752 52.8771 14.9225 52.8564 15.2643C52.8358 15.6062 53.0944 15.9134 53.4339 15.9504L56.8927 16.3282C57.0539 16.3461 57.2043 16.2992 57.3202 16.2089L57.3202 16.2089Z" fill="#FF4500"/>
<path d="M56.8387 19.6469C56.9545 19.5566 57.0359 19.4222 57.0586 19.2617L57.5345 15.8181C57.5812 15.4801 57.346 15.1546 57.0091 15.0914C56.6722 15.0281 56.361 15.2508 56.3143 15.5888L55.8385 19.0325C55.7918 19.3705 56.027 19.6959 56.3639 19.7592C56.5412 19.7923 56.7107 19.7466 56.8387 19.6469L56.8387 19.6469Z" fill="#FF4500"/>
<path d="M34.5273 41.4542L56.0458 24.6748C56.3095 24.4692 56.3483 24.0775 56.1324 23.8007C55.9165 23.5239 55.5271 23.4661 55.2634 23.6718L33.7449 40.4512C33.4812 40.6568 33.4424 41.0485 33.6583 41.3253C33.8742 41.6021 34.2636 41.6599 34.5273 41.4542Z" fill="#FF4500"/>
<path d="M56.0477 24.6758C56.1757 24.5761 56.2618 24.4226 56.2724 24.2431C56.293 23.9012 56.0344 23.594 55.6949 23.557L52.2365 23.1788C51.8971 23.1418 51.6051 23.389 51.5844 23.7309C51.5638 24.0727 51.8224 24.3799 52.1619 24.417L55.6203 24.7951C55.7815 24.8122 55.9319 24.7661 56.0477 24.6758L56.0477 24.6758Z" fill="#FF4500"/>
<path d="M55.5652 28.1137C55.681 28.0234 55.7629 27.8887 55.7851 27.7286L56.2605 24.2852C56.3073 23.9473 56.072 23.6218 55.7352 23.5585C55.3983 23.4953 55.0871 23.718 55.0404 24.056L54.565 27.4993C54.5183 27.8373 54.7535 28.1627 55.0904 28.226C55.2673 28.2587 55.4372 28.2134 55.5652 28.1137L55.5652 28.1137Z" fill="#FF4500"/>
<path d="M11.5389 44.2149L17.7232 39.3937C18.008 39.1717 18.064 38.767 17.8483 38.4905C17.6326 38.2141 17.2263 38.1699 16.9416 38.3919L10.7573 43.213C10.4725 43.435 10.4164 43.8397 10.6321 44.1162C10.8482 44.3931 11.2541 44.4369 11.5389 44.2149Z" fill="#FF4500"/>
<path d="M12.8753 50.2923L20.5634 44.2985C20.827 44.093 20.8659 43.7017 20.6501 43.4252C20.4344 43.1487 20.0453 43.091 19.7817 43.2966L12.0936 49.2903C11.83 49.4959 11.7911 49.8872 12.0068 50.1637C12.2225 50.4402 12.6117 50.4978 12.8753 50.2923Z" fill="#FF4500"/>
<path d="M19.5747 52.0676L25.2166 47.6693C25.4802 47.4639 25.5191 47.0726 25.3034 46.7962C25.0877 46.5197 24.6986 46.4621 24.435 46.6676L18.7931 51.0658C18.5295 51.2713 18.4907 51.6625 18.7064 51.939C18.922 52.2154 19.3111 52.273 19.5747 52.0676Z" fill="#FF4500"/>
<path d="M47.3448 55.4798L53.1344 50.9664C53.3395 50.8065 53.3448 50.4699 53.1461 50.2153C52.9474 49.9606 52.6196 49.8837 52.4145 50.0436L46.6249 54.5571C46.4198 54.717 46.4145 55.0535 46.6132 55.3082C46.8119 55.5628 47.1397 55.6397 47.3448 55.4798Z" fill="white"/>
<path d="M45.0633 45.0803C45.0804 45.067 45.0969 45.0528 45.1124 45.0373C51.2525 38.9722 51.7581 29.1151 46.2894 22.1093C40.3592 14.5123 29.5224 13.0164 22.1318 18.7751C14.7415 24.5337 13.5537 35.3994 19.4837 42.9962C24.1457 48.9686 31.9593 51.3422 38.9275 48.903C39.2241 48.7994 39.3747 48.4701 39.2632 48.1683C39.1517 47.8665 38.8205 47.7062 38.5234 47.8101C32.0214 50.0854 24.7299 47.87 20.3795 42.2968C14.846 35.208 15.9544 25.0693 22.8504 19.696C29.7464 14.3226 39.8585 15.7183 45.392 22.8071C50.4954 29.345 50.0242 38.543 44.2948 44.2011C44.0716 44.4215 44.0731 44.7875 44.2988 45.0185C44.5088 45.2321 44.8376 45.2546 45.0625 45.0794L45.0633 45.0803Z" fill="white"/>
</svg>
