<svg width="54" height="54" viewBox="0 0 54 54" fill="none" xmlns="http://www.w3.org/2000/svg">
<path d="M27 27.5512H0.551175C0.246765 27.5512 0 27.3044 0 27C0 26.6956 0.246754 26.4489 0.551175 26.4489H27C27.3044 26.4489 27.5512 26.6956 27.5512 27C27.5512 27.3044 27.3045 27.5512 27 27.5512Z" fill="white"/>
<path d="M22.5922 40.7756H4.95889C4.65448 40.7756 4.40771 40.5289 4.40771 40.2245C4.40771 39.92 4.65447 39.6733 4.95889 39.6733H22.5911C22.8955 39.6733 23.1422 39.92 23.1422 40.2245C23.1422 40.5289 22.8955 40.7756 22.5915 40.7756H22.5922Z" fill="white"/>
<path d="M49.0411 14.327H4.95889C4.65448 14.327 4.40771 14.0803 4.40771 13.7758C4.40771 13.4714 4.65447 13.2247 4.95889 13.2247H49.0399C49.3443 13.2247 49.5911 13.4714 49.5911 13.7758C49.5911 14.0803 49.3448 14.327 49.0404 14.327H49.0411Z" fill="white"/>
<path d="M26.9999 53.9999C19.7881 53.9999 13.008 51.1915 7.90833 46.0917C2.80866 40.9918 0 34.2122 0 27.0002C0 19.7882 2.80842 13.0084 7.90833 7.90876C13.0082 2.80912 19.7879 0.000488281 26.9999 0.000488281C27.3043 0.000488281 27.5511 0.247241 27.5511 0.55166C27.5511 0.856079 27.3043 1.10283 26.9999 1.10283C18.7964 1.10283 12.1224 12.7203 12.1224 27.0001C12.1224 41.2799 18.7964 52.8974 26.9999 52.8974C27.3043 52.8974 27.5511 53.1441 27.5511 53.4485C27.5511 53.7529 27.3043 53.9997 26.9999 53.9997V53.9999ZM21.3286 1.72839C9.76647 4.32095 1.10235 14.6682 1.10235 27.001C1.10235 39.3339 9.76659 49.6808 21.3286 52.2737C19.2001 50.92 17.2555 48.7946 15.6144 45.9811C12.6519 40.903 11.0206 34.1619 11.0206 27.0019C11.0206 19.8418 12.6519 13.101 15.6144 8.02258C17.2554 5.20911 19.2 3.08377 21.3286 1.73004V1.72839Z" fill="white"/>
<path d="M52.7006 33.815C52.4626 33.815 52.2505 33.6614 52.1767 33.4336C50.6477 28.7106 46.8868 25.0771 42.1168 23.7142C41.8968 23.6514 41.7386 23.4586 41.7192 23.2308C41.2017 17.0919 39.4131 11.4602 36.6835 7.37457C33.9811 3.32958 30.5422 1.10234 27.0004 1.10234C26.696 1.10234 26.4492 0.855591 26.4492 0.551172C26.4492 0.246752 26.696 0 27.0004 0C34.2122 0 40.9923 2.8084 46.092 7.90827C51.1918 13.008 54.0003 19.7877 54.0003 26.9997C54.0003 29.156 53.7434 31.3071 53.2365 33.3937C53.1784 33.6331 52.9681 33.8051 52.7218 33.8143C52.7144 33.8143 52.7075 33.8148 52.7006 33.8148L52.7006 33.815ZM42.7842 22.763C47.1285 24.1163 50.6546 27.2374 52.536 31.3285C52.7768 29.9014 52.8981 28.4518 52.8981 26.9999C52.8981 14.6552 44.2159 4.30007 32.6376 1.72014C34.4488 2.86583 36.1319 4.5655 37.5994 6.7618C40.3756 10.9166 42.2109 16.5864 42.7841 22.7632L42.7842 22.763Z" fill="white"/>
<path d="M27.0004 53.9999C26.696 53.9999 26.4492 53.7531 26.4492 53.4487C26.4492 53.1443 26.696 52.8976 27.0004 52.8976C28.5427 52.8976 30.0672 52.4815 31.5301 51.661C31.6814 51.5761 31.8636 51.5673 32.0223 51.6374C32.4807 51.8399 32.9558 52.0207 33.4341 52.1757C33.6688 52.2518 33.8243 52.4741 33.8151 52.7204C33.8058 52.9667 33.6343 53.177 33.3944 53.2351C31.3078 53.7425 29.1566 53.9999 27.0004 53.9999L27.0004 53.9999Z" fill="white"/>
<path d="M27.0004 53.9999C22.6754 53.9999 18.6318 51.1518 15.6148 45.9801C12.6523 40.9014 11.021 34.1608 11.021 26.9996C11.021 19.8384 12.6523 13.0987 15.6148 8.02032C18.6318 2.84855 22.6754 0 27.0004 0C30.9222 0 34.6863 2.40163 37.6 6.76165C40.4241 10.9888 42.275 16.7846 42.8132 23.0878C42.8188 23.1192 42.8215 23.1514 42.8215 23.1842C42.8215 23.4886 42.5748 23.7354 42.2704 23.7354H42.2681C42.2173 23.7354 42.1666 23.7284 42.1168 23.7141C40.7908 23.3355 39.4126 23.1432 38.0206 23.1432C29.8171 23.1432 23.1431 29.8171 23.1431 38.0205C23.1431 43.9132 26.6283 49.2584 32.0218 51.6381C32.2128 51.7225 32.3401 51.9074 32.3497 52.1159C32.3599 52.3244 32.251 52.5208 32.0689 52.6228C30.4393 53.5365 28.7337 54 27.0004 54L27.0004 53.9999ZM27.0004 1.10258C18.7968 1.10258 12.1229 12.72 12.1229 26.9998C12.1229 41.2796 18.7968 52.8971 27.0004 52.8971C28.2009 52.8971 29.39 52.6453 30.5482 52.1467C25.3451 49.3927 22.0412 43.9659 22.0412 38.0203C22.0412 29.2094 29.2097 22.0412 38.0203 22.0412C39.2463 22.0412 40.4626 22.1801 41.6465 22.455C41.0483 16.6185 39.2974 11.2877 36.6832 7.3745C33.9808 3.32998 30.5419 1.10274 27.0001 1.10274L27.0004 1.10258Z" fill="white"/>
<path d="M38.0201 53.9999C29.2092 53.9999 22.041 46.8315 22.041 38.0209C22.041 29.21 29.2095 22.0419 38.0201 22.0419C46.831 22.0419 53.9993 29.2103 53.9993 38.0209C53.9997 46.8317 46.8313 53.9999 38.0201 53.9999ZM38.0201 23.1423C29.8166 23.1423 23.1427 29.8162 23.1427 38.0197C23.1427 46.2232 29.8166 52.8971 38.0201 52.8971C46.2237 52.8971 52.8976 46.2232 52.8976 38.0197C52.8976 29.8162 46.2237 23.1423 38.0201 23.1423Z" fill="white"/>
<path d="M27.0004 27.5513C26.696 27.5513 26.4492 27.3045 26.4492 27.0001V0.551415C26.4492 0.247008 26.696 0.000244141 27.0004 0.000244141C27.3048 0.000244141 27.5516 0.246996 27.5516 0.551415V27.0001C27.5516 27.3045 27.3048 27.5513 27.0004 27.5513Z" fill="white"/>
<path d="M38.0199 47.3878C37.7155 47.3878 37.4688 47.1411 37.4688 46.8367L37.4692 29.2046C37.4692 28.9002 37.716 28.6534 38.0204 28.6534C38.3248 28.6534 38.5716 28.9002 38.5716 29.2046V46.8367C38.5711 47.1411 38.3243 47.3878 38.0199 47.3878H38.0199Z" fill="#FF4500"/>
<path d="M44.6321 36.3666C44.491 36.3666 44.3499 36.3127 44.2424 36.2052L38.0199 29.9828L31.7975 36.2052C31.5826 36.4206 31.2334 36.4206 31.0185 36.2052C30.8031 35.9903 30.8031 35.6411 31.0185 35.4262L37.6307 28.814C37.8456 28.5986 38.1948 28.5986 38.4097 28.814L45.0219 35.4262C45.2373 35.6411 45.2373 35.9903 45.0219 36.2052C44.9145 36.3131 44.7733 36.3666 44.6322 36.3666H44.6321Z" fill="#FF4500"/>
</svg>
