<svg width="60" height="61" viewBox="0 0 60 61" fill="none" xmlns="http://www.w3.org/2000/svg">
<path d="M12.0995 36.5948C11.7472 36.5933 11.4097 36.4526 11.1606 36.2032L11.1606 36.2032C10.9101 35.9525 10.7696 35.6124 10.7699 35.258L12.0995 36.5948ZM12.0995 36.5948H12.1053C12.4588 36.5948 12.7979 36.4547 13.0482 36.2051C13.2985 35.9555 13.4397 35.6168 13.4408 35.2634C13.4419 34.909 13.302 34.5687 13.052 34.3175C12.802 34.0662 12.4624 33.9246 12.1081 33.9239C11.7536 33.9232 11.4134 34.0634 11.1624 34.3136C10.9115 34.5639 10.7703 34.9036 10.7699 35.258L12.0995 36.5948ZM10.9181 34.0765L10.9181 34.0765C10.6033 34.3914 10.4264 34.8184 10.4264 35.2637C10.4264 35.709 10.6033 36.1361 10.9181 36.451L10.9181 36.451C11.233 36.7658 11.66 36.9427 12.1053 36.9427C12.5507 36.9427 12.9777 36.7658 13.2926 36.451L13.2926 36.451C13.6074 36.1361 13.7843 35.709 13.7843 35.2637C13.7843 34.8184 13.6074 34.3914 13.2926 34.0765L13.2926 34.0765C12.9777 33.7616 12.5507 33.5848 12.1053 33.5848C11.66 33.5848 11.233 33.7616 10.9181 34.0765Z" fill="url(#paint0_linear_167_2893)" stroke="url(#paint1_linear_167_2893)" stroke-width="0.2"/>
<path d="M16.7667 33.982L15.6955 33.6777L15.4911 33.2289L16.0022 32.3403C16.0233 32.3061 16.0176 32.2637 15.9878 32.235L15.628 31.9206L14.9125 31.2846C14.881 31.2566 14.8324 31.2499 14.7929 31.2683L13.7942 31.7225L13.2893 31.5409L12.9529 30.5905C12.9391 30.5512 12.8971 30.5251 12.8507 30.527H11.3512C11.3048 30.5251 11.2629 30.5512 11.2489 30.5905L10.9116 31.5427L10.4077 31.7244L9.40793 31.2701C9.36836 31.2517 9.31994 31.2584 9.28843 31.2865L8.21918 32.235C8.18809 32.2629 8.18068 32.3054 8.20079 32.3404L8.71188 33.2289L8.50746 33.6777L7.44028 33.982C7.396 33.9943 7.36662 34.0317 7.36876 34.0729V35.4066C7.36662 35.4478 7.396 35.4851 7.44028 35.4974L8.51053 35.8018L8.71495 36.2506L8.20385 37.1392C8.18489 37.1727 8.19095 37.213 8.21918 37.2409L9.28843 38.1894C9.31994 38.2175 9.36843 38.2241 9.408 38.2057L10.4077 37.7515L10.9117 37.9332L11.2542 38.8844C11.268 38.9238 11.3099 38.9499 11.3563 38.948H12.8558C12.9022 38.9499 12.9442 38.9238 12.9581 38.8844L13.2995 37.9332L13.8044 37.7515L14.8031 38.2057C14.8414 38.2219 14.8869 38.2154 14.9176 38.1894L15.9878 37.2409C16.0189 37.213 16.0263 37.1705 16.0062 37.1355L15.4951 36.2469L15.6996 35.7981L16.7708 35.4937C16.8151 35.4814 16.8445 35.4442 16.8424 35.4029V34.0684C16.8417 34.0278 16.8108 33.9926 16.7667 33.982ZM16.6338 35.3403L15.5881 35.6365C15.5595 35.6446 15.5363 35.6635 15.5248 35.6882L15.2805 36.2152C15.268 36.2394 15.2679 36.2673 15.2804 36.2915L15.7834 37.1591L14.8225 38.0131L13.8484 37.5662C13.8212 37.555 13.7897 37.5549 13.7625 37.5661L13.1696 37.7842C13.1418 37.7944 13.1206 37.815 13.1114 37.8405L12.7812 38.7654H11.4258L11.0915 37.8368C11.0824 37.8114 11.0611 37.7908 11.0333 37.7806L10.4425 37.5625C10.4152 37.5513 10.3839 37.5513 10.3566 37.5625L9.38141 38.0095L8.42361 37.1591L8.9255 36.2915C8.93812 36.2673 8.93812 36.2394 8.9255 36.2152L8.68016 35.6883C8.66861 35.6635 8.64551 35.6446 8.61684 35.6365L7.57319 35.3403V34.1347L8.61783 33.8385C8.64649 33.8304 8.66973 33.8114 8.68121 33.7868L8.92656 33.2598C8.93911 33.2356 8.93911 33.2077 8.92656 33.1835L8.42359 32.3159L9.38039 31.4664L10.3556 31.9133C10.3828 31.9245 10.4142 31.9246 10.4414 31.9134L11.0322 31.6953C11.0601 31.6851 11.0814 31.6645 11.0905 31.639L11.4258 30.7087H12.7812L13.1145 31.6381C13.1237 31.6636 13.1449 31.6842 13.1727 31.6944L13.7655 31.9125C13.7928 31.9237 13.8242 31.9237 13.8515 31.9124L14.8256 31.4664L15.7905 32.324L15.2845 33.1835C15.2719 33.2077 15.2719 33.2356 15.2845 33.2598L15.5288 33.7868C15.5403 33.8114 15.5636 33.8304 15.5922 33.8385L16.6379 34.1356L16.6338 35.3403Z" fill="url(#paint2_linear_167_2893)" stroke="url(#paint3_linear_167_2893)" stroke-width="0.4"/>
<path d="M47.9224 36.0097L47.9224 36.0097C48.1404 36.2279 48.4359 36.3511 48.7442 36.3525H48.7493C49.0587 36.3525 49.3556 36.2298 49.5747 36.0113C49.7938 35.7929 49.9174 35.4964 49.9183 35.187C49.9192 34.8768 49.7968 34.5789 49.578 34.359C49.3592 34.1391 49.0619 34.0152 48.7517 34.0146C48.4415 34.014 48.1437 34.1367 47.924 34.3557L47.9224 36.0097ZM47.9224 36.0097C47.7031 35.7902 47.5801 35.4926 47.5804 35.1823L47.9224 36.0097ZM47.6916 34.1296L47.6916 34.1296C47.4111 34.4102 47.2535 34.7906 47.2535 35.1874C47.2535 35.5841 47.4111 35.9646 47.6916 36.2451L47.6916 36.2451C47.9721 36.5256 48.3526 36.6832 48.7493 36.6832C49.1461 36.6832 49.5266 36.5256 49.8071 36.2451L49.8071 36.2451C50.0876 35.9646 50.2452 35.5841 50.2452 35.1874C50.2452 34.7906 50.0876 34.4102 49.8071 34.1296L49.8071 34.1296C49.5266 33.8491 49.1461 33.6915 48.7493 33.6915C48.3526 33.6915 47.9721 33.8491 47.6916 34.1296ZM47.5804 35.1823C47.5807 34.8721 47.7043 34.5747 47.924 34.3557L47.5804 35.1823Z" fill="url(#paint4_linear_167_2893)" stroke="url(#paint5_linear_167_2893)" stroke-width="0.2"/>
<path d="M52.8705 34.0544L51.9235 33.7854L51.7428 33.3886L52.1946 32.6031C52.2133 32.5729 52.2082 32.5354 52.182 32.51L51.8639 32.2321L51.2314 31.6699C51.2035 31.6451 51.1606 31.6392 51.1256 31.6554L50.2428 32.057L49.7964 31.8964L49.4991 31.0563C49.4868 31.0215 49.4497 30.9984 49.4087 31.0001H48.0831C48.0421 30.9984 48.005 31.0215 47.9927 31.0563L47.6945 31.898L47.249 32.0586L46.3652 31.6571C46.3303 31.6408 46.2875 31.6467 46.2596 31.6715L45.3144 32.51C45.2869 32.5346 45.2803 32.5722 45.2981 32.6032L45.7499 33.3887L45.5692 33.7854L44.6258 34.0544C44.5867 34.0653 44.5607 34.0983 44.5626 34.1347V35.3138C44.5607 35.3502 44.5867 35.3832 44.6258 35.394L45.5719 35.6631L45.7526 36.0599L45.3008 36.8454C45.2841 36.875 45.2894 36.9106 45.3144 36.9353L46.2596 37.7738C46.2875 37.7986 46.3303 37.8045 46.3653 37.7882L47.2491 37.3867L47.6946 37.5473L47.9973 38.3882C48.0096 38.423 48.0466 38.446 48.0876 38.4444H49.4132C49.4543 38.446 49.4913 38.423 49.5036 38.3882L49.8054 37.5473L50.2518 37.3867L51.1346 37.7882C51.1685 37.8025 51.2088 37.7967 51.2359 37.7738L52.182 36.9353C52.2094 36.9106 52.216 36.873 52.1982 36.8421L51.7464 36.0566L51.9271 35.6599L52.8741 35.3908C52.9133 35.3799 52.9392 35.347 52.9374 35.3105V34.1307C52.9368 34.0949 52.9095 34.0637 52.8705 34.0544ZM52.753 35.2551L51.8286 35.517C51.8033 35.5241 51.7828 35.5409 51.7726 35.5627L51.5567 36.0285C51.5456 36.0499 51.5455 36.0746 51.5566 36.096L52.0012 36.863L51.1518 37.618L50.2907 37.2228C50.2666 37.213 50.2388 37.2129 50.2147 37.2228L49.6906 37.4155C49.666 37.4246 49.6473 37.4428 49.6391 37.4653L49.3473 38.2829H48.1491L47.8536 37.4621C47.8455 37.4396 47.8266 37.4214 47.8021 37.4124L47.2798 37.2196C47.2557 37.2097 47.228 37.2097 47.2039 37.2196L46.3418 37.6147L45.4951 36.863L45.9388 36.096C45.9499 36.0746 45.9499 36.05 45.9388 36.0286L45.7219 35.5627C45.7117 35.5409 45.6913 35.5241 45.6659 35.517L44.7433 35.2551V34.1894L45.6668 33.9276C45.6921 33.9203 45.7127 33.9036 45.7228 33.8818L45.9397 33.416C45.9508 33.3946 45.9508 33.3699 45.9397 33.3485L45.4951 32.5815L46.3409 31.8305L47.203 32.2257C47.2271 32.2355 47.2548 32.2356 47.2789 32.2257L47.8012 32.033C47.8257 32.0239 47.8446 32.0057 47.8527 31.9832L48.149 31.1607H49.3473L49.6419 31.9824C49.65 32.0049 49.6688 32.0231 49.6933 32.0322L50.2174 32.2249C50.2415 32.2349 50.2693 32.2348 50.2934 32.2249L51.1545 31.8305L52.0075 32.5887L51.5602 33.3485C51.5491 33.3699 51.5491 33.3946 51.5602 33.416L51.7762 33.8818C51.7863 33.9036 51.8069 33.9203 51.8322 33.9276L52.7567 34.1902L52.753 35.2551Z" fill="url(#paint6_linear_167_2893)" stroke="url(#paint7_linear_167_2893)" stroke-width="0.4"/>
<path d="M40.2558 60.001H19.7428C19.4594 60.001 19.23 59.7716 19.23 59.4882C19.23 59.2047 19.4594 58.9753 19.7428 58.9753H40.2558C40.5392 58.9753 40.7686 59.2047 40.7686 59.4882C40.7686 59.7716 40.5392 60.001 40.2558 60.001Z" fill="white"/>
<path d="M24.8714 6.15391H14.6149C14.3314 6.15391 14.1021 5.92452 14.1021 5.64109C14.1021 5.35766 14.3314 5.12827 14.6149 5.12827H24.8714C25.1548 5.12827 25.3842 5.35766 25.3842 5.64109C25.3842 5.92452 25.1548 6.15391 24.8714 6.15391Z" fill="white"/>
<path d="M45.3841 6.15391H35.1276C34.8441 6.15391 34.6147 5.92452 34.6147 5.64109C34.6147 5.35766 34.8441 5.12827 35.1276 5.12827H45.3841C45.6675 5.12827 45.8969 5.35766 45.8969 5.64109C45.8969 5.92452 45.6675 6.15391 45.3841 6.15391Z" fill="white"/>
<path d="M29.9992 60.001C29.7157 60.001 29.4863 59.7717 29.4863 59.4882V10.7705C29.4863 10.487 29.7157 10.2576 29.9992 10.2576C30.2826 10.2576 30.512 10.487 30.512 10.7705V59.4882C30.512 59.7717 30.2826 60.001 29.9992 60.001Z" fill="white"/>
<path d="M47.9476 8.71838C46.2511 8.71838 44.8706 7.33838 44.8706 5.64143C44.8706 3.94448 46.2511 2.56448 47.9476 2.56448C49.644 2.56448 51.0245 3.94448 51.0245 5.64143C51.0245 7.33838 49.644 8.71838 47.9476 8.71838ZM47.9476 3.59013C46.8166 3.59013 45.8963 4.51048 45.8963 5.64143C45.8963 6.77239 46.8166 7.69273 47.9476 7.69273C49.0785 7.69273 49.9989 6.77239 49.9989 5.64143C49.9989 4.51048 49.0785 3.59013 47.9476 3.59013Z" fill="white"/>
<path d="M12.0511 8.71838C10.3541 8.71838 8.97412 7.33838 8.97412 5.64143C8.97412 3.94448 10.3541 2.56448 12.0511 2.56448C13.748 2.56448 15.128 3.94448 15.128 5.64143C15.128 7.33838 13.748 8.71838 12.0511 8.71838ZM12.0511 3.59013C10.9201 3.59013 9.99977 4.51048 9.99977 5.64143C9.99977 6.77239 10.9201 7.69273 12.0511 7.69273C13.182 7.69273 14.1024 6.77239 14.1024 5.64143C14.1024 4.51048 13.182 3.59013 12.0511 3.59013Z" fill="white"/>
<path d="M18.4641 36.9235H18.4613H5.64013C5.484 36.9235 5.33656 36.8525 5.23948 36.7307C5.14195 36.6089 5.10578 36.4491 5.14012 36.2971L11.5505 8.09235C11.6036 7.85883 11.811 7.69308 12.0505 7.69308C12.29 7.69308 12.4974 7.85884 12.5505 8.09235L18.9494 36.2479C18.9668 36.2992 18.9759 36.3541 18.9759 36.4114C18.9764 36.6948 18.7465 36.9242 18.4636 36.9242L18.4641 36.9235ZM6.28288 35.8979H17.8187L12.0508 10.5192L6.28288 35.8979Z" fill="white"/>
<path d="M12.0511 49.7445C5.40594 49.7445 0 44.3384 0 37.6934V36.4113C0 36.1279 0.229394 35.8985 0.512825 35.8985H23.5905C23.874 35.8985 24.1033 36.1279 24.1033 36.4113V37.6934C24.1033 44.3386 18.6972 49.7445 12.0523 49.7445H12.0511ZM1.02542 36.9233V37.6926C1.02542 43.7723 5.97139 48.7182 12.0511 48.7182C18.1308 48.7182 23.0768 43.7723 23.0768 37.6926V36.9233H1.02542Z" fill="white"/>
<path d="M54.3615 36.9235H54.3588H41.5376C41.3815 36.9235 41.234 36.8525 41.1369 36.7307C41.0394 36.6089 41.0032 36.4491 41.0376 36.2971L47.4479 8.09235C47.5011 7.85883 47.7085 7.69308 47.948 7.69308C48.1874 7.69308 48.3948 7.85884 48.448 8.09235L54.8468 36.2479C54.8642 36.2992 54.8734 36.3541 54.8734 36.4114C54.8738 36.6948 54.644 36.9242 54.361 36.9242L54.3615 36.9235ZM42.1803 35.8979H53.7161L47.9482 10.5192L42.1803 35.8979Z" fill="white"/>
<path d="M47.9481 49.7445C41.3029 49.7445 35.897 44.3384 35.897 37.6934V36.4113C35.897 36.1279 36.1264 35.8985 36.4098 35.8985H59.4875C59.7709 35.8985 60.0003 36.1279 60.0003 36.4113V37.6934C60.0003 44.3386 54.5942 49.7445 47.9492 49.7445H47.9481ZM36.9224 36.9233V37.6926C36.9224 43.7723 41.8684 48.7182 47.9481 48.7182C54.0278 48.7182 58.9737 43.7723 58.9737 37.6926V36.9233H36.9224Z" fill="white"/>
<path d="M29.9995 11.2821C26.8891 11.2821 24.3584 8.75137 24.3584 5.64101C24.3584 2.53066 26.8891 -6.10352e-05 29.9995 -6.10352e-05C33.1098 -6.10352e-05 35.6405 2.53066 35.6405 5.64101C35.6405 8.75137 33.1098 11.2821 29.9995 11.2821ZM29.9995 1.02559C27.4546 1.02559 25.384 3.09611 25.384 5.64101C25.384 8.18591 27.4546 10.2564 29.9995 10.2564C32.5448 10.2564 34.6149 8.18591 34.6149 5.64101C34.6149 3.09611 32.5448 1.02559 29.9995 1.02559Z" fill="white"/>
<defs>
<linearGradient id="paint0_linear_167_2893" x1="12.1053" y1="33.6848" x2="12.1053" y2="36.8427" gradientUnits="userSpaceOnUse">
<stop offset="0.723858" stop-color="#FF4500"/>
<stop offset="0.723958" stop-color="#FF4500" stop-opacity="0"/>
</linearGradient>
<linearGradient id="paint1_linear_167_2893" x1="12.1053" y1="33.6848" x2="12.1053" y2="36.8427" gradientUnits="userSpaceOnUse">
<stop offset="0.723958" stop-color="#FF4500"/>
<stop offset="0.807292" stop-color="#FF4500" stop-opacity="0"/>
</linearGradient>
<linearGradient id="paint2_linear_167_2893" x1="12.1056" y1="30.5269" x2="12.1056" y2="38.9481" gradientUnits="userSpaceOnUse">
<stop offset="0.418425" stop-color="#FF4500"/>
<stop offset="0.4445" stop-color="#FF4500" stop-opacity="0"/>
</linearGradient>
<linearGradient id="paint3_linear_167_2893" x1="12.1056" y1="30.5269" x2="12.1056" y2="38.9481" gradientUnits="userSpaceOnUse">
<stop offset="0.645833" stop-color="#FF4500"/>
<stop offset="0.734375" stop-color="#FF4500" stop-opacity="0"/>
</linearGradient>
<linearGradient id="paint4_linear_167_2893" x1="48.7493" y1="33.7915" x2="48.7493" y2="36.5832" gradientUnits="userSpaceOnUse">
<stop offset="0.723858" stop-color="#FF4500"/>
<stop offset="0.723958" stop-color="#FF4500" stop-opacity="0"/>
</linearGradient>
<linearGradient id="paint5_linear_167_2893" x1="48.7493" y1="33.7915" x2="48.7493" y2="36.5832" gradientUnits="userSpaceOnUse">
<stop offset="0.723958" stop-color="#FF4500"/>
<stop offset="0.807292" stop-color="#FF4500" stop-opacity="0"/>
</linearGradient>
<linearGradient id="paint6_linear_167_2893" x1="48.75" y1="31" x2="48.75" y2="38.4444" gradientUnits="userSpaceOnUse">
<stop offset="0.418425" stop-color="#FF4500"/>
<stop offset="0.4445" stop-color="#FF4500" stop-opacity="0"/>
</linearGradient>
<linearGradient id="paint7_linear_167_2893" x1="48.75" y1="31" x2="48.75" y2="38.4444" gradientUnits="userSpaceOnUse">
<stop offset="0.645833" stop-color="#FF4500"/>
<stop offset="0.734375" stop-color="#FF4500" stop-opacity="0"/>
</linearGradient>
</defs>
</svg>
