<svg width="71" height="70" viewBox="0 0 71 70" fill="none" xmlns="http://www.w3.org/2000/svg">
<path d="M46.3894 55.6261C43.8239 55.6261 41.336 55.124 38.9923 54.1335C36.7296 53.1766 34.6981 51.806 32.9526 50.06C31.2082 48.3156 29.8376 46.2827 28.8808 44.0204C27.8903 41.6766 27.3882 39.1889 27.3882 36.6232C27.3882 32.8727 28.4791 29.2451 30.5427 26.1333C31.5379 24.6333 32.7392 23.2807 34.1156 22.1161C35.4993 20.9426 37.0393 19.9773 38.6905 19.244C38.7463 19.2187 38.8067 19.2056 38.8687 19.2056C39.0438 19.2056 39.2015 19.3086 39.2736 19.469C39.3724 19.6913 39.2704 19.9532 39.0485 20.052C32.5011 22.9578 28.2699 29.4627 28.2715 36.6225C28.2715 41.4614 30.1557 46.0112 33.5767 49.4352C36.9993 52.8578 41.5495 54.7421 46.3894 54.7435C46.688 54.7435 46.9945 54.7346 47.2979 54.7199C47.545 54.7052 47.75 54.8965 47.7616 55.1394V55.1615C47.7616 55.397 47.5776 55.59 47.342 55.6015C47.0282 55.6178 46.709 55.6261 46.3894 55.6261ZM50.2357 55.227C50.028 55.227 49.8456 55.0798 49.803 54.8769C49.7793 54.7623 49.8014 54.6445 49.865 54.5457C49.9297 54.4458 50.0285 54.378 50.1447 54.3543C50.3787 54.3044 50.6189 54.4616 50.6673 54.6944C50.7172 54.9331 50.5658 55.1687 50.3271 55.2186C50.2961 55.2239 50.2651 55.227 50.2357 55.227ZM53.0546 54.3937C52.8738 54.3937 52.7071 54.2802 52.6424 54.1109C52.5999 54.0005 52.6025 53.8796 52.6514 53.7723C52.6987 53.6651 52.7854 53.5825 52.8958 53.5399C59.844 50.865 64.5121 44.0672 64.5121 36.6222C64.5121 31.7833 62.6262 27.2319 59.2037 23.8095C55.7797 20.3869 51.2294 18.5026 46.3894 18.5026C45.7843 18.5026 45.1766 18.5321 44.5804 18.591C44.3375 18.6162 44.1209 18.4364 44.0978 18.1951C44.0962 18.1804 44.0947 18.1656 44.0947 18.1509C44.0962 17.9228 44.2671 17.7345 44.4937 17.7125C45.1177 17.6504 45.7565 17.6199 46.3895 17.6199C48.955 17.6199 51.4429 18.122 53.7866 19.1125C56.0493 20.0694 58.0819 21.44 59.8279 23.186C61.5739 24.9304 62.9444 26.9633 63.9014 29.2256C64.8918 31.5694 65.3955 34.0571 65.3955 36.6228C65.3955 40.54 64.2121 44.3012 61.9762 47.4982C60.8984 49.0396 59.603 50.4097 58.1236 51.5726C56.631 52.746 54.9792 53.6849 53.2142 54.3637C53.1627 54.3826 53.1093 54.3937 53.0546 54.3937ZM41.6435 19.1154C41.4432 19.1154 41.2666 18.9798 41.2166 18.7858C41.1856 18.6722 41.2019 18.5534 41.2624 18.4514C41.3213 18.3483 41.4169 18.2763 41.5305 18.2469C41.5321 18.2453 41.5337 18.2453 41.5337 18.2453C41.5689 18.2364 41.6057 18.2322 41.6441 18.2322C41.8444 18.2322 42.0194 18.3662 42.071 18.5602C42.1004 18.6748 42.0841 18.7926 42.0252 18.8956C41.9663 18.9971 41.8707 19.0691 41.756 19.1002C41.7182 19.1096 41.6803 19.1154 41.6435 19.1154Z" fill="white"/>
<path d="M36.7055 38.0044C34.1399 38.0044 31.6521 37.5008 29.3083 36.5102C27.0456 35.5534 25.0131 34.1828 23.2687 32.4384C21.5227 30.6923 20.1521 28.6594 19.1952 26.3971C18.2047 24.055 17.7026 21.5656 17.7026 19C17.7026 15.2505 18.7935 11.6218 20.8586 8.51001C21.8554 7.00855 23.0578 5.65741 24.4341 4.49134C25.8194 3.31947 27.3592 2.35367 29.0122 1.62083C29.0695 1.5956 29.1284 1.58245 29.1905 1.58245C29.3655 1.58245 29.5248 1.6855 29.5953 1.84584C29.6941 2.06822 29.5921 2.33005 29.3703 2.42888C22.818 5.33303 18.5842 11.8385 18.5858 18.9994C18.5858 23.8394 20.4701 28.3897 23.8926 31.8121C27.3152 35.2347 31.8654 37.1204 36.7053 37.1204C37.0071 37.1204 37.3105 37.113 37.6075 37.0983C37.8535 37.082 38.0581 37.275 38.0696 37.5179C38.0696 37.5252 38.0712 37.5326 38.0712 37.54C38.0696 37.7755 37.8856 37.9684 37.6501 37.98C37.3378 37.9947 37.0202 38.0036 36.7053 38.0036L36.7055 38.0044ZM40.5443 37.607C40.3367 37.607 40.1558 37.4582 40.1132 37.2552C40.0633 37.0181 40.2163 36.7826 40.4534 36.7327C40.6889 36.6843 40.9276 36.8399 40.9775 37.0739C41.0275 37.3125 40.8745 37.5465 40.6358 37.5964C40.6048 37.6022 40.5738 37.607 40.5443 37.607L40.5443 37.607ZM43.3649 36.7737C43.1825 36.7737 43.0174 36.6601 42.9527 36.4908C42.8644 36.2626 42.979 36.0066 43.2061 35.9199C50.1559 33.2465 54.8249 26.4471 54.8238 19.0007C54.8238 14.1619 52.9396 9.6132 49.517 6.18953C46.0944 2.76856 41.5442 0.88271 36.7058 0.88271C36.1022 0.88271 35.4955 0.913728 34.9026 0.971033C34.6612 0.996269 34.4431 0.816472 34.4199 0.575155C34.4184 0.560434 34.4184 0.545713 34.4184 0.530992C34.4184 0.302824 34.5892 0.115665 34.8158 0.0925296H34.819C35.4446 0.0304924 36.0792 0 36.7063 0C39.2724 0 41.7597 0.503657 44.1034 1.4942C46.3661 2.45105 48.3976 3.82164 50.1431 5.56604C51.8875 7.31206 53.2581 9.3434 54.2149 11.6057C55.2054 13.9494 55.7075 16.4372 55.7075 19.0012C55.7075 22.92 54.5257 26.6811 52.2881 29.8797C51.2104 31.4212 49.9139 32.7929 48.4339 33.9541C46.9413 35.1276 45.2879 36.0665 43.5231 36.7452C43.4721 36.7636 43.4179 36.7741 43.3648 36.7741L43.3649 36.7737ZM31.9654 1.49264C31.7651 1.49264 31.59 1.357 31.5385 1.163C31.509 1.04944 31.5253 0.930623 31.5842 0.828632C31.6431 0.727164 31.7388 0.65356 31.8534 0.624125C32.0847 0.562088 32.3318 0.708243 32.3923 0.939035C32.4543 1.17456 32.3145 1.41588 32.0789 1.47791H32.0758C32.04 1.48843 32.0022 1.49264 31.9654 1.49264V1.49264Z" fill="white"/>
<path d="M27.8736 54.3354C25.3081 54.3354 22.8186 53.8333 20.4765 52.8428C18.2138 51.8844 16.1812 50.5154 14.4368 48.7694C12.6908 47.0233 11.3203 44.992 10.3633 42.7297C9.37285 40.386 8.86914 37.8972 8.86914 35.3326C8.86914 31.582 9.96162 27.9544 12.0251 24.8426C13.0203 23.3411 14.2227 21.99 15.5991 20.8239C16.9828 19.6521 18.5228 18.6852 20.174 17.9534C20.2313 17.9282 20.2918 17.9151 20.3538 17.9151C20.5273 17.9151 20.6866 18.0181 20.7571 18.1769C20.8559 18.3993 20.7539 18.6611 20.5321 18.7599C13.9846 21.6657 9.75232 28.1706 9.75232 35.3318C9.7539 40.1707 11.6382 44.7204 15.0606 48.1445C18.4832 51.5671 23.0334 53.4513 27.8733 53.4513C28.1767 53.4513 28.4811 53.444 28.7786 53.4292C29.0247 53.4161 29.2308 53.6059 29.2423 53.8488V53.8708C29.2423 54.1064 29.0583 54.2993 28.8228 54.3109C28.5074 54.3277 28.1882 54.3351 27.8733 54.3351L27.8736 54.3354ZM31.7168 53.9364C31.5091 53.9364 31.3267 53.7892 31.2841 53.5857C31.2341 53.3475 31.3871 53.1131 31.6258 53.0631C31.8613 53.0132 32.1 53.1704 32.1484 53.4049C32.1983 53.6435 32.0469 53.8775 31.8082 53.9274C31.7772 53.9337 31.7462 53.9364 31.7168 53.9364L31.7168 53.9364ZM34.5357 53.1031C34.3549 53.1031 34.1898 52.9895 34.1235 52.8202C34.0809 52.7098 34.0836 52.5905 34.1325 52.4832C34.1808 52.3744 34.2681 52.2919 34.3769 52.2493C41.3267 49.5759 45.9946 42.7765 45.9931 35.3315C45.9931 30.4916 44.1089 25.9413 40.6863 22.5188C37.2637 19.0962 32.7119 17.212 27.8736 17.2105C27.2701 17.2105 26.6623 17.2415 26.0646 17.3004C25.8186 17.3225 25.6051 17.1458 25.582 16.9045C25.5804 16.8882 25.5804 16.8735 25.5804 16.8588C25.5804 16.6322 25.7513 16.4435 25.9779 16.4214C26.6051 16.3593 27.2423 16.3273 27.8737 16.3273C30.4392 16.3273 32.9271 16.8309 35.2708 17.8215C37.5335 18.7783 39.5644 20.1489 41.3105 21.8949C43.0565 23.6393 44.4255 25.6723 45.3839 27.9346C46.3744 30.2767 46.8765 32.766 46.8765 35.3317C46.8765 39.2489 45.6947 43.0101 43.4582 46.2086C42.3805 47.7501 41.084 49.1202 39.6046 50.2821C38.112 51.4555 36.4602 52.3944 34.6952 53.0732C34.6436 53.0942 34.5905 53.1026 34.5359 53.1026L34.5357 53.1031ZM23.1272 17.8247C22.9269 17.8247 22.7518 17.6891 22.7003 17.4967C22.6708 17.3821 22.6871 17.2627 22.746 17.1613C22.8049 17.0598 22.9006 16.9878 23.0152 16.9568C23.2465 16.8963 23.4936 17.0409 23.5541 17.2717C23.6161 17.5072 23.4763 17.7485 23.2407 17.8105C23.2039 17.82 23.1656 17.8247 23.1272 17.8247V17.8247Z" fill="white"/>
<path d="M52.9922 59.0096H15.6345C15.3916 59.0096 15.1929 58.8125 15.1929 58.568C15.1929 58.3251 15.3916 58.1264 15.6345 58.1264H52.9922C53.2367 58.1264 53.4338 58.3251 53.4338 58.568C53.4344 58.8125 53.2367 59.0096 52.9927 59.0096H52.9922Z" fill="#FF4500"/>
<path d="M70.1547 59.0096H59.528C59.2852 59.0096 59.0864 58.8125 59.0864 58.568C59.0864 58.3251 59.2852 58.1264 59.528 58.1264H70.1547C70.3976 58.1264 70.5964 58.3251 70.5964 58.568C70.5964 58.8125 70.3976 59.0096 70.1547 59.0096Z" fill="white"/>
<path d="M56.9622 62.98H32.8884C32.6439 62.98 32.4468 62.7812 32.4468 62.5384C32.4468 62.2939 32.6439 62.0967 32.8884 62.0967H56.9622C57.2051 62.0967 57.4023 62.2939 57.4023 62.5384C57.4028 62.7807 57.2051 62.98 56.9622 62.98Z" fill="white"/>
<path d="M13.0692 62.98H2.44503C2.20214 62.98 2.00342 62.7812 2.00342 62.5384C2.00342 62.2939 2.20215 62.0967 2.44503 62.0967H13.0692C13.3121 62.0967 13.5108 62.2939 13.5108 62.5384C13.5108 62.7807 13.3121 62.98 13.0692 62.98Z" fill="white"/>
<path d="M27.2843 62.98H22.4397C22.1952 62.98 21.998 62.7812 21.998 62.5384C21.998 62.2939 22.1952 62.0967 22.4397 62.0967H27.2843C27.5272 62.0967 27.7259 62.2939 27.7259 62.5384C27.7259 62.7807 27.5272 62.98 27.2843 62.98Z" fill="#FF4500"/>
<path d="M5.76778 39.3959C5.52332 39.3959 5.32617 39.1988 5.32617 38.9559V21.2118C5.32617 20.9673 5.52332 20.7701 5.76778 20.7701C6.01068 20.7701 6.2094 20.9673 6.2094 21.2118V38.9559C6.2094 39.1993 6.01066 39.3965 5.76778 39.3965V39.3959Z" fill="#FF4500"/>
<path d="M2.44042 25.3638C2.33159 25.3638 2.22697 25.3238 2.14601 25.2502C1.96515 25.0883 1.95044 24.8086 2.11236 24.6278L5.43764 20.9166C5.59536 20.7415 5.88661 20.7252 6.06168 20.8814C6.24254 21.0449 6.25883 21.3246 6.09533 21.5054L2.77005 25.2166C2.68646 25.3107 2.56712 25.3638 2.44042 25.3638V25.3638Z" fill="#FF4500"/>
<path d="M9.09609 25.3638C8.97097 25.3638 8.85005 25.3091 8.76803 25.2166L5.43804 21.5054C5.27612 21.3246 5.29083 21.0449 5.47169 20.8814C5.64676 20.7252 5.9396 20.7415 6.09574 20.9166L9.42411 24.6278C9.58761 24.8086 9.57132 25.0883 9.39046 25.2502C9.3095 25.3244 9.20488 25.3638 9.09605 25.3638L9.09609 25.3638Z" fill="#FF4500"/>
<path d="M10.7302 23.8095C10.4873 23.8095 10.2886 23.6124 10.2886 23.3695V5.62533C10.2886 5.38086 10.4873 5.18372 10.7302 5.18372C10.9731 5.18372 11.1718 5.38086 11.1718 5.62533V23.3695C11.1718 23.6124 10.9731 23.8095 10.7302 23.8095Z" fill="#FF4500"/>
<path d="M7.40155 9.77712C7.29273 9.77712 7.18811 9.73717 7.10714 9.66356C6.92471 9.50164 6.91 9.22195 7.0735 9.04109L10.4015 5.32995C10.5576 5.15488 10.8504 5.13858 11.0239 5.29472C11.2048 5.45822 11.2211 5.73792 11.0576 5.91877L7.72921 9.62991C7.64614 9.72402 7.5268 9.77713 7.40168 9.77713L7.40155 9.77712Z" fill="#FF4500"/>
<path d="M14.057 9.77713C13.9319 9.77713 13.811 9.72403 13.7274 9.62991L10.4016 5.91877C10.2381 5.73791 10.2544 5.45822 10.4352 5.29473C10.6087 5.13858 10.9021 5.15487 11.0577 5.32995L14.3846 9.04109C14.464 9.12784 14.5039 9.2414 14.4966 9.35917C14.4908 9.47693 14.4393 9.58576 14.3509 9.66409C14.2705 9.73717 14.1659 9.77712 14.057 9.77712L14.057 9.77713Z" fill="#FF4500"/>
</svg>
